<svg width="68" height="68" viewBox="0 0 68 68" fill="none" xmlns="http://www.w3.org/2000/svg">
<path d="M46.75 12.7436C46.7541 14.5872 46.3552 16.4094 45.5813 18.0826L52.5938 30.1951C49.409 33.6022 45.3467 36.0654 40.8531 37.3139L34 25.4936H33.881L24.956 41.0996C27.8815 42.0246 30.9317 42.4947 34 42.4936C38.4741 42.5034 42.8916 41.493 46.9167 39.5392C50.9417 37.5855 54.4683 34.7397 57.2284 31.2183C57.9547 30.3591 58.9899 29.82 60.1104 29.7175C61.2308 29.6149 62.3467 29.9572 63.2169 30.6704C64.0872 31.3835 64.642 32.4104 64.7616 33.5291C64.8812 34.6479 64.556 35.7688 63.8562 36.6498C60.2685 41.1205 55.7239 44.7299 50.557 47.2122C45.3901 49.6945 39.7323 50.9867 34 50.9936C29.4342 50.9987 24.9044 50.1843 20.6263 48.5891L13.1017 61.5793C12.4766 62.6579 11.55 63.5306 10.4359 64.09L3.07594 67.7683C2.752 67.9304 2.39201 68.007 2.03015 67.9909C1.66828 67.9747 1.31655 67.8663 1.00837 67.6759C0.700181 67.4856 0.445766 67.2197 0.269282 66.9033C0.0927977 66.587 0.00010284 66.2308 0 65.8686L0 58.5118C0.00239815 57.3882 0.298338 56.2846 0.8585 55.3105L8.82725 41.5511C7.1275 40.0557 5.56047 38.4158 4.14375 36.6498C3.43736 35.7687 3.10715 34.6445 3.22482 33.5214C3.3425 32.3983 3.89857 31.3669 4.77224 30.6514C5.64591 29.9358 6.76662 29.5939 7.89093 29.6999C9.01524 29.8058 10.0523 30.3511 10.7769 31.2173C11.4954 32.2197 12.3053 33.1534 13.1962 34.0063L22.4188 18.0826C21.6216 16.3515 21.2227 14.4636 21.2514 12.558C21.2802 10.6523 21.7357 8.77734 22.5846 7.07097C23.4335 5.3646 24.6542 3.87024 26.1568 2.69783C27.6594 1.52543 29.4057 0.704792 31.2673 0.296301C33.1288 -0.112189 35.0583 -0.0981446 36.9137 0.337403C38.7692 0.77295 40.5034 1.61892 41.9887 2.81308C43.4741 4.00724 44.6729 5.5192 45.4969 7.23775C46.3208 8.9563 46.749 10.8377 46.75 12.7436ZM34 16.9936C34.8406 16.9936 35.6623 16.7443 36.3612 16.2773C37.0601 15.8103 37.6048 15.1466 37.9265 14.37C38.2482 13.5934 38.3323 12.7389 38.1683 11.9144C38.0043 11.09 37.5996 10.3328 37.0052 9.73838C36.4108 9.14401 35.6536 8.73923 34.8291 8.57524C34.0047 8.41126 33.1502 8.49542 32.3736 8.81709C31.597 9.13877 30.9333 9.6835 30.4663 10.3824C29.9993 11.0813 29.75 11.903 29.75 12.7436C29.75 13.8708 30.1978 14.9518 30.9948 15.7488C31.7918 16.5458 32.8728 16.9936 34 16.9936ZM49.4201 52.309C53.7576 50.653 57.785 48.2776 61.3328 45.2826L67.1373 55.3105C67.7027 56.2826 68.0004 57.3872 68 58.5118V65.8686C68.0004 66.2315 67.9077 66.5885 67.731 66.9055C67.5542 67.2225 67.2992 67.489 66.9902 67.6795C66.6813 67.87 66.3287 67.9781 65.9661 67.9937C65.6034 68.0093 65.2429 67.9317 64.9187 67.7683L57.5609 64.0889C56.4479 63.5263 55.5208 62.6546 54.8909 61.5782L49.4201 52.309Z" fill="#A68F4B"/>
</svg>
