<svg width="316" height="132" viewBox="0 0 316 132" fill="none" xmlns="http://www.w3.org/2000/svg">
<g filter="url(#filter0_d_1_73)">
<mask id="path-1-outside-1_1_73" maskUnits="userSpaceOnUse" x="3.09259" y="-0.110001" width="309" height="124" fill="black">
<rect fill="white" x="3.09259" y="-0.110001" width="309" height="124"/>
<path d="M20.2346 33.294H14.5396L5.36059 3.948H11.5246L17.3536 27.063L22.8476 3.948H29.0116L20.2346 33.294ZM14.3386 29.944H20.4356V45.89H14.3386V29.944ZM45.5156 35.17V19.961C45.5156 19.1123 45.3816 18.5763 45.1136 18.353C44.8902 18.085 44.3542 17.951 43.5056 17.951H41.4956V13.194H45.2476C47.4362 13.194 49.0219 13.7077 50.0046 14.735C50.9872 15.7177 51.4786 17.1917 51.4786 19.157V35.17H45.5156ZM45.5156 39.123V32.356H51.4786V39.994C51.4786 41.9147 50.9872 43.3887 50.0046 44.416C49.0219 45.3987 47.4362 45.89 45.2476 45.89H41.1606V41.133H43.5056C44.3542 41.133 44.8902 40.999 45.1136 40.731C45.3816 40.463 45.5156 39.927 45.5156 39.123ZM37.8776 19.961V35.237H31.9146V19.157C31.9146 17.1917 32.4059 15.7177 33.3886 14.735C34.3712 13.7077 35.9346 13.194 38.0786 13.194H41.8976V17.951H39.8876C39.0836 17.951 38.5476 18.085 38.2796 18.353C38.0116 18.5763 37.8776 19.1123 37.8776 19.961ZM37.8776 31.954V39.123C37.8776 39.927 38.0116 40.463 38.2796 40.731C38.5476 40.999 39.0836 41.133 39.8876 41.133H41.6966V45.89H38.0786C35.9346 45.89 34.3712 45.3987 33.3886 44.416C32.4059 43.3887 31.9146 41.9147 31.9146 39.994V31.954H37.8776ZM56.9804 13.194H63.0104V39.056C63.0104 39.8153 63.1444 40.329 63.4124 40.597C63.6804 40.865 64.2164 40.999 65.0204 40.999H67.3654C68.1248 40.999 68.6831 40.8427 69.0404 40.53C69.3978 40.1727 69.5764 39.5473 69.5764 38.654V36.51H69.8444V41.334C69.8444 42.942 69.4424 44.1033 68.6384 44.818C67.8344 45.5327 66.7624 45.89 65.4224 45.89H63.0104C60.9558 45.89 59.4371 45.3987 58.4544 44.416C57.4718 43.3887 56.9804 41.9147 56.9804 39.994V13.194ZM69.5764 13.194H75.6064V45.89H69.5764V41.803V41.401V13.194ZM94.1811 13.127V18.42H91.7691C88.9551 18.42 87.5481 20.0503 87.5481 23.311V24.718H87.2801V19.023C87.2801 18.085 87.4811 17.1693 87.8831 16.276C88.3298 15.338 88.9551 14.5787 89.7591 13.998C90.6078 13.4173 91.6351 13.127 92.8411 13.127H94.1811ZM87.5481 45.89H81.5181V13.194H87.5481V19.291V45.89ZM122.041 3.948H128.272L120.701 45.89H112.125L104.554 3.948H110.785L116.413 40.329L122.041 3.948ZM137.602 45.89H131.572V13.194H137.602V45.89ZM131.438 6.963V0.999998H137.736V6.963H131.438ZM154.401 39.324V33.897C154.401 33.093 154.267 32.5793 153.999 32.356C153.776 32.088 153.24 31.954 152.391 31.954H148.974C146.785 31.954 145.2 31.4627 144.217 30.48C143.234 29.4527 142.743 27.9787 142.743 26.058V19.157C142.743 17.1917 143.234 15.7177 144.217 14.735C145.244 13.7077 146.83 13.194 148.974 13.194H153.865C156.054 13.194 157.639 13.7077 158.622 14.735C159.649 15.7177 160.163 17.1917 160.163 19.157V22.306H154.267V19.76C154.267 18.956 154.133 18.4423 153.865 18.219C153.642 17.951 153.106 17.817 152.257 17.817H150.649C149.845 17.817 149.309 17.951 149.041 18.219C148.773 18.4423 148.639 18.956 148.639 19.76V25.388C148.639 26.192 148.773 26.728 149.041 26.996C149.309 27.2193 149.845 27.331 150.649 27.331H154.133C156.277 27.331 157.84 27.8447 158.823 28.872C159.806 29.8547 160.297 31.3287 160.297 33.294V39.994C160.297 41.9147 159.783 43.3887 158.756 44.416C157.773 45.3987 156.21 45.89 154.066 45.89H149.108C146.964 45.89 145.378 45.3987 144.351 44.416C143.368 43.3887 142.877 41.9147 142.877 39.994V36.778H148.84V39.324C148.84 40.0833 148.974 40.597 149.242 40.865C149.51 41.133 150.024 41.267 150.783 41.267H152.391C153.24 41.267 153.776 41.133 153.999 40.865C154.267 40.597 154.401 40.0833 154.401 39.324ZM171.494 45.89H165.464V13.194H171.494V45.89ZM165.33 6.963V0.999998H171.628V6.963H165.33ZM190.639 35.17V19.961C190.639 19.1123 190.505 18.5763 190.237 18.353C190.013 18.085 189.477 17.951 188.629 17.951H186.619V13.194H190.371C192.559 13.194 194.145 13.7077 195.128 14.735C196.11 15.7177 196.602 17.1917 196.602 19.157V35.17H190.639ZM190.639 39.123V32.356H196.602V39.994C196.602 41.9147 196.11 43.3887 195.128 44.416C194.145 45.3987 192.559 45.89 190.371 45.89H186.284V41.133H188.629C189.477 41.133 190.013 40.999 190.237 40.731C190.505 40.463 190.639 39.927 190.639 39.123ZM183.001 19.961V35.237H177.038V19.157C177.038 17.1917 177.529 15.7177 178.512 14.735C179.494 13.7077 181.058 13.194 183.202 13.194H187.021V17.951H185.011C184.207 17.951 183.671 18.085 183.403 18.353C183.135 18.5763 183.001 19.1123 183.001 19.961ZM183.001 31.954V39.123C183.001 39.927 183.135 40.463 183.403 40.731C183.671 40.999 184.207 41.133 185.011 41.133H186.82V45.89H183.202C181.058 45.89 179.494 45.3987 178.512 44.416C177.529 43.3887 177.038 41.9147 177.038 39.994V31.954H183.001ZM208.2 45.89H202.17V13.194H208.2V17.281V17.683V45.89ZM220.796 45.89H214.766V20.028C214.766 19.224 214.632 18.7103 214.364 18.487C214.096 18.219 213.56 18.085 212.756 18.085H210.411C209.652 18.085 209.094 18.2637 208.736 18.621C208.379 18.9783 208.2 19.5813 208.2 20.43V22.574H207.932V17.75C207.932 16.142 208.334 14.9807 209.138 14.266C209.942 13.5513 211.014 13.194 212.354 13.194H214.766C216.821 13.194 218.34 13.7077 219.322 14.735C220.305 15.7177 220.796 17.1917 220.796 19.157V45.89ZM225.837 37.649H232.604V42.004L227.981 55.27H225.837V37.649ZM261.519 33.16V10.782C261.519 9.978 261.385 9.46433 261.117 9.241C260.894 8.973 260.358 8.839 259.509 8.839H257.298V3.948H261.318C263.507 3.948 265.093 4.46166 266.075 5.489C267.103 6.47166 267.616 7.92333 267.616 9.844V33.16H261.519ZM261.519 39.056V30.346H267.616V39.994C267.616 41.9147 267.103 43.3887 266.075 44.416C265.093 45.3987 263.507 45.89 261.318 45.89H256.896V40.999H259.509C260.358 40.999 260.894 40.865 261.117 40.597C261.385 40.329 261.519 39.8153 261.519 39.056ZM253.68 10.782V33.227H247.583V9.844C247.583 7.92333 248.075 6.47166 249.057 5.489C250.085 4.46166 251.693 3.948 253.881 3.948H257.901V8.839H255.69C254.886 8.839 254.35 8.973 254.082 9.241C253.814 9.46433 253.68 9.978 253.68 10.782ZM253.68 29.877V39.056C253.68 39.8153 253.814 40.329 254.082 40.597C254.35 40.865 254.886 40.999 255.69 40.999H257.767V45.89H253.881C251.693 45.89 250.085 45.3987 249.057 44.416C248.075 43.3887 247.583 41.9147 247.583 39.994V29.877H253.68ZM273.618 13.194H279.648V39.056C279.648 39.8153 279.782 40.329 280.05 40.597C280.318 40.865 280.854 40.999 281.658 40.999H284.003C284.762 40.999 285.321 40.8427 285.678 40.53C286.035 40.1727 286.214 39.5473 286.214 38.654V36.51H286.482V41.334C286.482 42.942 286.08 44.1033 285.276 44.818C284.472 45.5327 283.4 45.89 282.06 45.89H279.648C277.593 45.89 276.075 45.3987 275.092 44.416C274.109 43.3887 273.618 41.9147 273.618 39.994V13.194ZM286.214 13.194H292.244V45.89H286.214V41.803V41.401V13.194ZM310.819 13.127V18.42H308.407C305.593 18.42 304.186 20.0503 304.186 23.311V24.718H303.918V19.023C303.918 18.085 304.119 17.1693 304.521 16.276C304.967 15.338 305.593 14.5787 306.397 13.998C307.245 13.4173 308.273 13.127 309.479 13.127H310.819ZM304.186 45.89H298.156V13.194H304.186V19.291V45.89ZM8.57659 70.948H14.6736V112.89H8.57659V70.948ZM24.3216 88.77V93.661H11.9266V88.77H24.3216ZM26.3316 70.948V75.839H11.7926V70.948H26.3316ZM26.8006 107.999V112.89H11.7926V107.999H26.8006ZM42.5304 96.14L50.7044 112.89H44.3394L39.4484 101.567L34.6914 112.89H28.3934L36.4334 96.207L28.8624 80.194H35.2944L39.5154 90.914L43.6694 80.194H49.9674L42.5304 96.14ZM72.5328 97.681H66.5028V87.028C66.5028 86.224 66.3688 85.7103 66.1008 85.487C65.8328 85.219 65.2968 85.085 64.4928 85.085H62.1478C61.3885 85.085 60.8301 85.2637 60.4728 85.621C60.1155 85.9783 59.9368 86.5813 59.9368 87.43V89.574H59.6688V84.75C59.6688 83.142 60.0708 81.9807 60.8748 81.266C61.6788 80.5513 62.7508 80.194 64.0908 80.194H66.5028C68.5575 80.194 70.0761 80.7077 71.0588 81.735C72.0415 82.7177 72.5328 84.1917 72.5328 86.157V97.681ZM59.9368 122.136H53.9068V80.194H59.9368V84.08V84.75V122.136ZM66.5028 95.403H72.5328V106.994C72.5328 108.915 72.0415 110.389 71.0588 111.416C70.0761 112.399 68.5575 112.89 66.5028 112.89H64.0908C62.7508 112.89 61.6788 112.533 60.8748 111.818C60.0708 111.103 59.6688 109.942 59.6688 108.334V104.113H59.9368V105.654C59.9368 106.547 60.1155 107.173 60.4728 107.53C60.8301 107.843 61.3885 107.999 62.1478 107.999H64.4928C65.2968 107.999 65.8328 107.865 66.1008 107.597C66.3688 107.329 66.5028 106.815 66.5028 106.056V95.403ZM83.8124 86.894V106.19C83.8124 106.949 83.9464 107.463 84.2144 107.731C84.4824 107.999 85.0184 108.133 85.8224 108.133H87.4974V112.89H84.1474C82.0034 112.89 80.4177 112.399 79.3904 111.416C78.4077 110.389 77.9164 108.915 77.9164 106.994V86.157C77.9164 84.1917 78.4077 82.7177 79.3904 81.735C80.4177 80.7077 82.0034 80.194 84.1474 80.194H87.8324V84.951H85.8224C85.0184 84.951 84.4824 85.085 84.2144 85.353C83.9464 85.5763 83.8124 86.09 83.8124 86.894ZM91.0484 97.547V86.894C91.0484 86.09 90.9144 85.5763 90.6464 85.353C90.423 85.085 89.9094 84.951 89.1054 84.951H86.9614V80.194H90.7134C92.902 80.194 94.4877 80.7077 95.4704 81.735C96.4977 82.7177 97.0114 84.1917 97.0114 86.157V97.547H91.0484ZM90.9144 106.123V103.443H96.8104V106.994C96.8104 108.915 96.319 110.389 95.3364 111.416C94.3537 112.399 92.768 112.89 90.5794 112.89H86.9614V108.133H88.9044C89.753 108.133 90.289 107.999 90.5124 107.731C90.7804 107.463 90.9144 106.927 90.9144 106.123ZM97.0114 93.996V98.418H80.0604V93.996H97.0114ZM114.857 80.127V85.42H112.445C109.631 85.42 108.224 87.0503 108.224 90.311V91.718H107.956V86.023C107.956 85.085 108.157 84.1693 108.559 83.276C109.006 82.338 109.631 81.5787 110.435 80.998C111.284 80.4173 112.311 80.127 113.517 80.127H114.857ZM108.224 112.89H102.194V80.194H108.224V86.291V112.89ZM124.725 74.633V105.788C124.725 106.547 124.859 107.061 125.127 107.329C125.395 107.597 125.908 107.731 126.668 107.731H129.214V112.89H124.926C122.737 112.89 121.129 112.399 120.102 111.416C119.119 110.389 118.628 108.915 118.628 106.994V74.633H124.725ZM129.214 80.194V85.085H115.546V80.194H129.214ZM138.845 112.89H132.815V80.194H138.845V112.89ZM132.681 73.963V68H138.979V73.963H132.681ZM155.644 106.324V100.897C155.644 100.093 155.51 99.5793 155.242 99.356C155.019 99.088 154.483 98.954 153.634 98.954H150.217C148.029 98.954 146.443 98.4627 145.46 97.48C144.478 96.4527 143.986 94.9787 143.986 93.058V86.157C143.986 84.1917 144.478 82.7177 145.46 81.735C146.488 80.7077 148.073 80.194 150.217 80.194H155.108C157.297 80.194 158.883 80.7077 159.865 81.735C160.893 82.7177 161.406 84.1917 161.406 86.157V89.306H155.51V86.76C155.51 85.956 155.376 85.4423 155.108 85.219C154.885 84.951 154.349 84.817 153.5 84.817H151.892C151.088 84.817 150.552 84.951 150.284 85.219C150.016 85.4423 149.882 85.956 149.882 86.76V92.388C149.882 93.192 150.016 93.728 150.284 93.996C150.552 94.2193 151.088 94.331 151.892 94.331H155.376C157.52 94.331 159.084 94.8447 160.066 95.872C161.049 96.8547 161.54 98.3287 161.54 100.294V106.994C161.54 108.915 161.027 110.389 159.999 111.416C159.017 112.399 157.453 112.89 155.309 112.89H150.351C148.207 112.89 146.622 112.399 145.594 111.416C144.612 110.389 144.12 108.915 144.12 106.994V103.778H150.083V106.324C150.083 107.083 150.217 107.597 150.485 107.865C150.753 108.133 151.267 108.267 152.026 108.267H153.634C154.483 108.267 155.019 108.133 155.242 107.865C155.51 107.597 155.644 107.083 155.644 106.324ZM172.47 86.894V106.19C172.47 106.949 172.604 107.463 172.872 107.731C173.14 107.999 173.676 108.133 174.48 108.133H176.155V112.89H172.805C170.661 112.89 169.075 112.399 168.048 111.416C167.065 110.389 166.574 108.915 166.574 106.994V86.157C166.574 84.1917 167.065 82.7177 168.048 81.735C169.075 80.7077 170.661 80.194 172.805 80.194H176.49V84.951H174.48C173.676 84.951 173.14 85.085 172.872 85.353C172.604 85.5763 172.47 86.09 172.47 86.894ZM179.706 97.547V86.894C179.706 86.09 179.572 85.5763 179.304 85.353C179.08 85.085 178.567 84.951 177.763 84.951H175.619V80.194H179.371C181.559 80.194 183.145 80.7077 184.128 81.735C185.155 82.7177 185.669 84.1917 185.669 86.157V97.547H179.706ZM179.572 106.123V103.443H185.468V106.994C185.468 108.915 184.976 110.389 183.994 111.416C183.011 112.399 181.425 112.89 179.237 112.89H175.619V108.133H177.562C178.41 108.133 178.946 107.999 179.17 107.731C179.438 107.463 179.572 106.927 179.572 106.123ZM185.669 93.996V98.418H168.718V93.996H185.669ZM191.253 70.948H198.556L197.417 99.222H192.392L191.253 70.948ZM191.454 112.89V104.649H198.221V112.89H191.454Z"/>
</mask>
<path d="M20.2346 33.294H14.5396L5.36059 3.948H11.5246L17.3536 27.063L22.8476 3.948H29.0116L20.2346 33.294ZM14.3386 29.944H20.4356V45.89H14.3386V29.944ZM45.5156 35.17V19.961C45.5156 19.1123 45.3816 18.5763 45.1136 18.353C44.8902 18.085 44.3542 17.951 43.5056 17.951H41.4956V13.194H45.2476C47.4362 13.194 49.0219 13.7077 50.0046 14.735C50.9872 15.7177 51.4786 17.1917 51.4786 19.157V35.17H45.5156ZM45.5156 39.123V32.356H51.4786V39.994C51.4786 41.9147 50.9872 43.3887 50.0046 44.416C49.0219 45.3987 47.4362 45.89 45.2476 45.89H41.1606V41.133H43.5056C44.3542 41.133 44.8902 40.999 45.1136 40.731C45.3816 40.463 45.5156 39.927 45.5156 39.123ZM37.8776 19.961V35.237H31.9146V19.157C31.9146 17.1917 32.4059 15.7177 33.3886 14.735C34.3712 13.7077 35.9346 13.194 38.0786 13.194H41.8976V17.951H39.8876C39.0836 17.951 38.5476 18.085 38.2796 18.353C38.0116 18.5763 37.8776 19.1123 37.8776 19.961ZM37.8776 31.954V39.123C37.8776 39.927 38.0116 40.463 38.2796 40.731C38.5476 40.999 39.0836 41.133 39.8876 41.133H41.6966V45.89H38.0786C35.9346 45.89 34.3712 45.3987 33.3886 44.416C32.4059 43.3887 31.9146 41.9147 31.9146 39.994V31.954H37.8776ZM56.9804 13.194H63.0104V39.056C63.0104 39.8153 63.1444 40.329 63.4124 40.597C63.6804 40.865 64.2164 40.999 65.0204 40.999H67.3654C68.1248 40.999 68.6831 40.8427 69.0404 40.53C69.3978 40.1727 69.5764 39.5473 69.5764 38.654V36.51H69.8444V41.334C69.8444 42.942 69.4424 44.1033 68.6384 44.818C67.8344 45.5327 66.7624 45.89 65.4224 45.89H63.0104C60.9558 45.89 59.4371 45.3987 58.4544 44.416C57.4718 43.3887 56.9804 41.9147 56.9804 39.994V13.194ZM69.5764 13.194H75.6064V45.89H69.5764V41.803V41.401V13.194ZM94.1811 13.127V18.42H91.7691C88.9551 18.42 87.5481 20.0503 87.5481 23.311V24.718H87.2801V19.023C87.2801 18.085 87.4811 17.1693 87.8831 16.276C88.3298 15.338 88.9551 14.5787 89.7591 13.998C90.6078 13.4173 91.6351 13.127 92.8411 13.127H94.1811ZM87.5481 45.89H81.5181V13.194H87.5481V19.291V45.89ZM122.041 3.948H128.272L120.701 45.89H112.125L104.554 3.948H110.785L116.413 40.329L122.041 3.948ZM137.602 45.89H131.572V13.194H137.602V45.89ZM131.438 6.963V0.999998H137.736V6.963H131.438ZM154.401 39.324V33.897C154.401 33.093 154.267 32.5793 153.999 32.356C153.776 32.088 153.24 31.954 152.391 31.954H148.974C146.785 31.954 145.2 31.4627 144.217 30.48C143.234 29.4527 142.743 27.9787 142.743 26.058V19.157C142.743 17.1917 143.234 15.7177 144.217 14.735C145.244 13.7077 146.83 13.194 148.974 13.194H153.865C156.054 13.194 157.639 13.7077 158.622 14.735C159.649 15.7177 160.163 17.1917 160.163 19.157V22.306H154.267V19.76C154.267 18.956 154.133 18.4423 153.865 18.219C153.642 17.951 153.106 17.817 152.257 17.817H150.649C149.845 17.817 149.309 17.951 149.041 18.219C148.773 18.4423 148.639 18.956 148.639 19.76V25.388C148.639 26.192 148.773 26.728 149.041 26.996C149.309 27.2193 149.845 27.331 150.649 27.331H154.133C156.277 27.331 157.84 27.8447 158.823 28.872C159.806 29.8547 160.297 31.3287 160.297 33.294V39.994C160.297 41.9147 159.783 43.3887 158.756 44.416C157.773 45.3987 156.21 45.89 154.066 45.89H149.108C146.964 45.89 145.378 45.3987 144.351 44.416C143.368 43.3887 142.877 41.9147 142.877 39.994V36.778H148.84V39.324C148.84 40.0833 148.974 40.597 149.242 40.865C149.51 41.133 150.024 41.267 150.783 41.267H152.391C153.24 41.267 153.776 41.133 153.999 40.865C154.267 40.597 154.401 40.0833 154.401 39.324ZM171.494 45.89H165.464V13.194H171.494V45.89ZM165.33 6.963V0.999998H171.628V6.963H165.33ZM190.639 35.17V19.961C190.639 19.1123 190.505 18.5763 190.237 18.353C190.013 18.085 189.477 17.951 188.629 17.951H186.619V13.194H190.371C192.559 13.194 194.145 13.7077 195.128 14.735C196.11 15.7177 196.602 17.1917 196.602 19.157V35.17H190.639ZM190.639 39.123V32.356H196.602V39.994C196.602 41.9147 196.11 43.3887 195.128 44.416C194.145 45.3987 192.559 45.89 190.371 45.89H186.284V41.133H188.629C189.477 41.133 190.013 40.999 190.237 40.731C190.505 40.463 190.639 39.927 190.639 39.123ZM183.001 19.961V35.237H177.038V19.157C177.038 17.1917 177.529 15.7177 178.512 14.735C179.494 13.7077 181.058 13.194 183.202 13.194H187.021V17.951H185.011C184.207 17.951 183.671 18.085 183.403 18.353C183.135 18.5763 183.001 19.1123 183.001 19.961ZM183.001 31.954V39.123C183.001 39.927 183.135 40.463 183.403 40.731C183.671 40.999 184.207 41.133 185.011 41.133H186.82V45.89H183.202C181.058 45.89 179.494 45.3987 178.512 44.416C177.529 43.3887 177.038 41.9147 177.038 39.994V31.954H183.001ZM208.2 45.89H202.17V13.194H208.2V17.281V17.683V45.89ZM220.796 45.89H214.766V20.028C214.766 19.224 214.632 18.7103 214.364 18.487C214.096 18.219 213.56 18.085 212.756 18.085H210.411C209.652 18.085 209.094 18.2637 208.736 18.621C208.379 18.9783 208.2 19.5813 208.2 20.43V22.574H207.932V17.75C207.932 16.142 208.334 14.9807 209.138 14.266C209.942 13.5513 211.014 13.194 212.354 13.194H214.766C216.821 13.194 218.34 13.7077 219.322 14.735C220.305 15.7177 220.796 17.1917 220.796 19.157V45.89ZM225.837 37.649H232.604V42.004L227.981 55.27H225.837V37.649ZM261.519 33.16V10.782C261.519 9.978 261.385 9.46433 261.117 9.241C260.894 8.973 260.358 8.839 259.509 8.839H257.298V3.948H261.318C263.507 3.948 265.093 4.46166 266.075 5.489C267.103 6.47166 267.616 7.92333 267.616 9.844V33.16H261.519ZM261.519 39.056V30.346H267.616V39.994C267.616 41.9147 267.103 43.3887 266.075 44.416C265.093 45.3987 263.507 45.89 261.318 45.89H256.896V40.999H259.509C260.358 40.999 260.894 40.865 261.117 40.597C261.385 40.329 261.519 39.8153 261.519 39.056ZM253.68 10.782V33.227H247.583V9.844C247.583 7.92333 248.075 6.47166 249.057 5.489C250.085 4.46166 251.693 3.948 253.881 3.948H257.901V8.839H255.69C254.886 8.839 254.35 8.973 254.082 9.241C253.814 9.46433 253.68 9.978 253.68 10.782ZM253.68 29.877V39.056C253.68 39.8153 253.814 40.329 254.082 40.597C254.35 40.865 254.886 40.999 255.69 40.999H257.767V45.89H253.881C251.693 45.89 250.085 45.3987 249.057 44.416C248.075 43.3887 247.583 41.9147 247.583 39.994V29.877H253.68ZM273.618 13.194H279.648V39.056C279.648 39.8153 279.782 40.329 280.05 40.597C280.318 40.865 280.854 40.999 281.658 40.999H284.003C284.762 40.999 285.321 40.8427 285.678 40.53C286.035 40.1727 286.214 39.5473 286.214 38.654V36.51H286.482V41.334C286.482 42.942 286.08 44.1033 285.276 44.818C284.472 45.5327 283.4 45.89 282.06 45.89H279.648C277.593 45.89 276.075 45.3987 275.092 44.416C274.109 43.3887 273.618 41.9147 273.618 39.994V13.194ZM286.214 13.194H292.244V45.89H286.214V41.803V41.401V13.194ZM310.819 13.127V18.42H308.407C305.593 18.42 304.186 20.0503 304.186 23.311V24.718H303.918V19.023C303.918 18.085 304.119 17.1693 304.521 16.276C304.967 15.338 305.593 14.5787 306.397 13.998C307.245 13.4173 308.273 13.127 309.479 13.127H310.819ZM304.186 45.89H298.156V13.194H304.186V19.291V45.89ZM8.57659 70.948H14.6736V112.89H8.57659V70.948ZM24.3216 88.77V93.661H11.9266V88.77H24.3216ZM26.3316 70.948V75.839H11.7926V70.948H26.3316ZM26.8006 107.999V112.89H11.7926V107.999H26.8006ZM42.5304 96.14L50.7044 112.89H44.3394L39.4484 101.567L34.6914 112.89H28.3934L36.4334 96.207L28.8624 80.194H35.2944L39.5154 90.914L43.6694 80.194H49.9674L42.5304 96.14ZM72.5328 97.681H66.5028V87.028C66.5028 86.224 66.3688 85.7103 66.1008 85.487C65.8328 85.219 65.2968 85.085 64.4928 85.085H62.1478C61.3885 85.085 60.8301 85.2637 60.4728 85.621C60.1155 85.9783 59.9368 86.5813 59.9368 87.43V89.574H59.6688V84.75C59.6688 83.142 60.0708 81.9807 60.8748 81.266C61.6788 80.5513 62.7508 80.194 64.0908 80.194H66.5028C68.5575 80.194 70.0761 80.7077 71.0588 81.735C72.0415 82.7177 72.5328 84.1917 72.5328 86.157V97.681ZM59.9368 122.136H53.9068V80.194H59.9368V84.08V84.75V122.136ZM66.5028 95.403H72.5328V106.994C72.5328 108.915 72.0415 110.389 71.0588 111.416C70.0761 112.399 68.5575 112.89 66.5028 112.89H64.0908C62.7508 112.89 61.6788 112.533 60.8748 111.818C60.0708 111.103 59.6688 109.942 59.6688 108.334V104.113H59.9368V105.654C59.9368 106.547 60.1155 107.173 60.4728 107.53C60.8301 107.843 61.3885 107.999 62.1478 107.999H64.4928C65.2968 107.999 65.8328 107.865 66.1008 107.597C66.3688 107.329 66.5028 106.815 66.5028 106.056V95.403ZM83.8124 86.894V106.19C83.8124 106.949 83.9464 107.463 84.2144 107.731C84.4824 107.999 85.0184 108.133 85.8224 108.133H87.4974V112.89H84.1474C82.0034 112.89 80.4177 112.399 79.3904 111.416C78.4077 110.389 77.9164 108.915 77.9164 106.994V86.157C77.9164 84.1917 78.4077 82.7177 79.3904 81.735C80.4177 80.7077 82.0034 80.194 84.1474 80.194H87.8324V84.951H85.8224C85.0184 84.951 84.4824 85.085 84.2144 85.353C83.9464 85.5763 83.8124 86.09 83.8124 86.894ZM91.0484 97.547V86.894C91.0484 86.09 90.9144 85.5763 90.6464 85.353C90.423 85.085 89.9094 84.951 89.1054 84.951H86.9614V80.194H90.7134C92.902 80.194 94.4877 80.7077 95.4704 81.735C96.4977 82.7177 97.0114 84.1917 97.0114 86.157V97.547H91.0484ZM90.9144 106.123V103.443H96.8104V106.994C96.8104 108.915 96.319 110.389 95.3364 111.416C94.3537 112.399 92.768 112.89 90.5794 112.89H86.9614V108.133H88.9044C89.753 108.133 90.289 107.999 90.5124 107.731C90.7804 107.463 90.9144 106.927 90.9144 106.123ZM97.0114 93.996V98.418H80.0604V93.996H97.0114ZM114.857 80.127V85.42H112.445C109.631 85.42 108.224 87.0503 108.224 90.311V91.718H107.956V86.023C107.956 85.085 108.157 84.1693 108.559 83.276C109.006 82.338 109.631 81.5787 110.435 80.998C111.284 80.4173 112.311 80.127 113.517 80.127H114.857ZM108.224 112.89H102.194V80.194H108.224V86.291V112.89ZM124.725 74.633V105.788C124.725 106.547 124.859 107.061 125.127 107.329C125.395 107.597 125.908 107.731 126.668 107.731H129.214V112.89H124.926C122.737 112.89 121.129 112.399 120.102 111.416C119.119 110.389 118.628 108.915 118.628 106.994V74.633H124.725ZM129.214 80.194V85.085H115.546V80.194H129.214ZM138.845 112.89H132.815V80.194H138.845V112.89ZM132.681 73.963V68H138.979V73.963H132.681ZM155.644 106.324V100.897C155.644 100.093 155.51 99.5793 155.242 99.356C155.019 99.088 154.483 98.954 153.634 98.954H150.217C148.029 98.954 146.443 98.4627 145.46 97.48C144.478 96.4527 143.986 94.9787 143.986 93.058V86.157C143.986 84.1917 144.478 82.7177 145.46 81.735C146.488 80.7077 148.073 80.194 150.217 80.194H155.108C157.297 80.194 158.883 80.7077 159.865 81.735C160.893 82.7177 161.406 84.1917 161.406 86.157V89.306H155.51V86.76C155.51 85.956 155.376 85.4423 155.108 85.219C154.885 84.951 154.349 84.817 153.5 84.817H151.892C151.088 84.817 150.552 84.951 150.284 85.219C150.016 85.4423 149.882 85.956 149.882 86.76V92.388C149.882 93.192 150.016 93.728 150.284 93.996C150.552 94.2193 151.088 94.331 151.892 94.331H155.376C157.52 94.331 159.084 94.8447 160.066 95.872C161.049 96.8547 161.54 98.3287 161.54 100.294V106.994C161.54 108.915 161.027 110.389 159.999 111.416C159.017 112.399 157.453 112.89 155.309 112.89H150.351C148.207 112.89 146.622 112.399 145.594 111.416C144.612 110.389 144.12 108.915 144.12 106.994V103.778H150.083V106.324C150.083 107.083 150.217 107.597 150.485 107.865C150.753 108.133 151.267 108.267 152.026 108.267H153.634C154.483 108.267 155.019 108.133 155.242 107.865C155.51 107.597 155.644 107.083 155.644 106.324ZM172.47 86.894V106.19C172.47 106.949 172.604 107.463 172.872 107.731C173.14 107.999 173.676 108.133 174.48 108.133H176.155V112.89H172.805C170.661 112.89 169.075 112.399 168.048 111.416C167.065 110.389 166.574 108.915 166.574 106.994V86.157C166.574 84.1917 167.065 82.7177 168.048 81.735C169.075 80.7077 170.661 80.194 172.805 80.194H176.49V84.951H174.48C173.676 84.951 173.14 85.085 172.872 85.353C172.604 85.5763 172.47 86.09 172.47 86.894ZM179.706 97.547V86.894C179.706 86.09 179.572 85.5763 179.304 85.353C179.08 85.085 178.567 84.951 177.763 84.951H175.619V80.194H179.371C181.559 80.194 183.145 80.7077 184.128 81.735C185.155 82.7177 185.669 84.1917 185.669 86.157V97.547H179.706ZM179.572 106.123V103.443H185.468V106.994C185.468 108.915 184.976 110.389 183.994 111.416C183.011 112.399 181.425 112.89 179.237 112.89H175.619V108.133H177.562C178.41 108.133 178.946 107.999 179.17 107.731C179.438 107.463 179.572 106.927 179.572 106.123ZM185.669 93.996V98.418H168.718V93.996H185.669ZM191.253 70.948H198.556L197.417 99.222H192.392L191.253 70.948ZM191.454 112.89V104.649H198.221V112.89H191.454Z" fill="#141414"/>
<path d="M20.2346 33.294V34.294H20.9793L21.1927 33.5805L20.2346 33.294ZM14.5396 33.294L13.5852 33.5925L13.8046 34.294H14.5396V33.294ZM5.36059 3.948V2.948H4.00003L4.40619 4.24652L5.36059 3.948ZM11.5246 3.948L12.4942 3.70348L12.3037 2.948H11.5246V3.948ZM17.3536 27.063L16.3839 27.3075L18.3265 27.2942L17.3536 27.063ZM22.8476 3.948V2.948H22.0574L21.8747 3.71676L22.8476 3.948ZM29.0116 3.948L29.9697 4.23454L30.3544 2.948H29.0116V3.948ZM14.3386 29.944V28.944H13.3386V29.944H14.3386ZM20.4356 29.944H21.4356V28.944H20.4356V29.944ZM20.4356 45.89V46.89H21.4356V45.89H20.4356ZM14.3386 45.89H13.3386V46.89H14.3386V45.89ZM20.2346 33.294V32.294H14.5396V33.294V34.294H20.2346V33.294ZM14.5396 33.294L15.494 32.9955L6.31499 3.64947L5.36059 3.948L4.40619 4.24652L13.5852 33.5925L14.5396 33.294ZM5.36059 3.948V4.948H11.5246V3.948V2.948H5.36059V3.948ZM11.5246 3.948L10.5549 4.19252L16.3839 27.3075L17.3536 27.063L18.3232 26.8185L12.4942 3.70348L11.5246 3.948ZM17.3536 27.063L18.3265 27.2942L23.8205 4.17924L22.8476 3.948L21.8747 3.71676L16.3807 26.8318L17.3536 27.063ZM22.8476 3.948V4.948H29.0116V3.948V2.948H22.8476V3.948ZM29.0116 3.948L28.0535 3.66145L19.2765 33.0075L20.2346 33.294L21.1927 33.5805L29.9697 4.23454L29.0116 3.948ZM14.3386 29.944V30.944H20.4356V29.944V28.944H14.3386V29.944ZM20.4356 29.944H19.4356V45.89H20.4356H21.4356V29.944H20.4356ZM20.4356 45.89V44.89H14.3386V45.89V46.89H20.4356V45.89ZM14.3386 45.89H15.3386V29.944H14.3386H13.3386V45.89H14.3386ZM45.5156 35.17H44.5156V36.17H45.5156V35.17ZM45.1136 18.353L44.3454 18.9932L44.4036 19.063L44.4734 19.1212L45.1136 18.353ZM41.4956 17.951H40.4956V18.951H41.4956V17.951ZM41.4956 13.194V12.194H40.4956V13.194H41.4956ZM50.0046 14.735L49.2819 15.4262L49.2896 15.4342L49.2975 15.4421L50.0046 14.735ZM51.4786 35.17V36.17H52.4786V35.17H51.4786ZM45.5156 32.356V31.356H44.5156V32.356H45.5156ZM51.4786 32.356H52.4786V31.356H51.4786V32.356ZM50.0046 44.416L50.7117 45.1231L50.7195 45.1153L50.7272 45.1072L50.0046 44.416ZM41.1606 45.89H40.1606V46.89H41.1606V45.89ZM41.1606 41.133V40.133H40.1606V41.133H41.1606ZM45.1136 40.731L44.4065 40.0239L44.3744 40.056L44.3454 40.0908L45.1136 40.731ZM37.8776 35.237V36.237H38.8776V35.237H37.8776ZM31.9146 35.237H30.9146V36.237H31.9146V35.237ZM33.3886 14.735L34.0957 15.4421L34.1035 15.4342L34.1112 15.4262L33.3886 14.735ZM41.8976 13.194H42.8976V12.194H41.8976V13.194ZM41.8976 17.951V18.951H42.8976V17.951H41.8976ZM38.2796 18.353L38.9198 19.1212L38.9546 19.0922L38.9867 19.0601L38.2796 18.353ZM37.8776 31.954H38.8776V30.954H37.8776V31.954ZM38.2796 40.731L38.9867 40.0239L38.9867 40.0239L38.2796 40.731ZM41.6966 41.133H42.6966V40.133H41.6966V41.133ZM41.6966 45.89V46.89H42.6966V45.89H41.6966ZM33.3886 44.416L32.6659 45.1072L32.6736 45.1153L32.6815 45.1231L33.3886 44.416ZM31.9146 31.954V30.954H30.9146V31.954H31.9146ZM45.5156 35.17H46.5156V19.961H45.5156H44.5156V35.17H45.5156ZM45.5156 19.961H46.5156C46.5156 19.4935 46.4796 19.0576 46.3852 18.68C46.2946 18.3175 46.121 17.8908 45.7538 17.5848L45.1136 18.353L44.4734 19.1212C44.3741 19.0385 44.4015 18.9914 44.4449 19.165C44.4845 19.3234 44.5156 19.5798 44.5156 19.961H45.5156ZM45.1136 18.353L45.8818 17.7128C45.5757 17.3455 45.149 17.172 44.7866 17.0814C44.409 16.9869 43.973 16.951 43.5056 16.951V17.951V18.951C43.8868 18.951 44.1432 18.9821 44.3015 19.0216C44.4751 19.065 44.4281 19.0925 44.3454 18.9932L45.1136 18.353ZM43.5056 17.951V16.951H41.4956V17.951V18.951H43.5056V17.951ZM41.4956 17.951H42.4956V13.194H41.4956H40.4956V17.951H41.4956ZM41.4956 13.194V14.194H45.2476V13.194V12.194H41.4956V13.194ZM45.2476 13.194V14.194C47.3083 14.194 48.5689 14.6808 49.2819 15.4262L50.0046 14.735L50.7272 14.0438C49.4749 12.7345 47.5642 12.194 45.2476 12.194V13.194ZM50.0046 14.735L49.2975 15.4421C50.0265 16.1711 50.4786 17.3458 50.4786 19.157H51.4786H52.4786C52.4786 17.0375 51.948 15.2642 50.7117 14.0279L50.0046 14.735ZM51.4786 19.157H50.4786V35.17H51.4786H52.4786V19.157H51.4786ZM51.4786 35.17V34.17H45.5156V35.17V36.17H51.4786V35.17ZM45.5156 39.123H46.5156V32.356H45.5156H44.5156V39.123H45.5156ZM45.5156 32.356V33.356H51.4786V32.356V31.356H45.5156V32.356ZM51.4786 32.356H50.4786V39.994H51.4786H52.4786V32.356H51.4786ZM51.4786 39.994H50.4786C50.4786 41.7495 50.0316 42.941 49.2819 43.7248L50.0046 44.416L50.7272 45.1072C51.9429 43.8363 52.4786 42.0799 52.4786 39.994H51.4786ZM50.0046 44.416L49.2975 43.7089C48.5858 44.4205 47.3187 44.89 45.2476 44.89V45.89V46.89C47.5537 46.89 49.458 46.3768 50.7117 45.1231L50.0046 44.416ZM45.2476 45.89V44.89H41.1606V45.89V46.89H45.2476V45.89ZM41.1606 45.89H42.1606V41.133H41.1606H40.1606V45.89H41.1606ZM41.1606 41.133V42.133H43.5056V41.133V40.133H41.1606V41.133ZM43.5056 41.133V42.133C43.973 42.133 44.409 42.0971 44.7866 42.0026C45.149 41.912 45.5757 41.7385 45.8818 41.3712L45.1136 40.731L44.3454 40.0908C44.4281 39.9915 44.4751 40.019 44.3015 40.0624C44.1432 40.1019 43.8868 40.133 43.5056 40.133V41.133ZM45.1136 40.731L45.8207 41.4381C46.1286 41.1302 46.2932 40.7388 46.3852 40.3705C46.4788 39.9962 46.5156 39.5733 46.5156 39.123H45.5156H44.5156C44.5156 39.4767 44.4854 39.7238 44.4449 39.8855C44.403 40.0532 44.3666 40.0638 44.4065 40.0239L45.1136 40.731ZM37.8776 19.961H36.8776V35.237H37.8776H38.8776V19.961H37.8776ZM37.8776 35.237V34.237H31.9146V35.237V36.237H37.8776V35.237ZM31.9146 35.237H32.9146V19.157H31.9146H30.9146V35.237H31.9146ZM31.9146 19.157H32.9146C32.9146 17.3458 33.3667 16.1711 34.0957 15.4421L33.3886 14.735L32.6815 14.0279C31.4451 15.2642 30.9146 17.0375 30.9146 19.157H31.9146ZM33.3886 14.735L34.1112 15.4262C34.8275 14.6773 36.0698 14.194 38.0786 14.194V13.194V12.194C35.7993 12.194 33.9149 12.738 32.6659 14.0438L33.3886 14.735ZM38.0786 13.194V14.194H41.8976V13.194V12.194H38.0786V13.194ZM41.8976 13.194H40.8976V17.951H41.8976H42.8976V13.194H41.8976ZM41.8976 17.951V16.951H39.8876V17.951V18.951H41.8976V17.951ZM39.8876 17.951V16.951C39.4373 16.951 39.0143 16.9878 38.64 17.0814C38.2718 17.1734 37.8803 17.338 37.5725 17.6459L38.2796 18.353L38.9867 19.0601C38.9468 19.1 38.9574 19.0636 39.1251 19.0216C39.2868 18.9812 39.5338 18.951 39.8876 18.951V17.951ZM38.2796 18.353L37.6394 17.5848C37.2721 17.8908 37.0985 18.3175 37.0079 18.68C36.9135 19.0576 36.8776 19.4935 36.8776 19.961H37.8776H38.8776C38.8776 19.5798 38.9086 19.3234 38.9482 19.165C38.9916 18.9914 39.019 19.0385 38.9198 19.1212L38.2796 18.353ZM37.8776 31.954H36.8776V39.123H37.8776H38.8776V31.954H37.8776ZM37.8776 39.123H36.8776C36.8776 39.5733 36.9144 39.9962 37.0079 40.3705C37.1 40.7388 37.2646 41.1302 37.5725 41.4381L38.2796 40.731L38.9867 40.0239C39.0266 40.0638 38.9902 40.0532 38.9482 39.8855C38.9078 39.7238 38.8776 39.4767 38.8776 39.123H37.8776ZM38.2796 40.731L37.5725 41.4381C37.8803 41.746 38.2718 41.9106 38.64 42.0026C39.0143 42.0962 39.4373 42.133 39.8876 42.133V41.133V40.133C39.5338 40.133 39.2868 40.1028 39.1251 40.0624C38.9574 40.0204 38.9468 39.984 38.9867 40.0239L38.2796 40.731ZM39.8876 41.133V42.133H41.6966V41.133V40.133H39.8876V41.133ZM41.6966 41.133H40.6966V45.89H41.6966H42.6966V41.133H41.6966ZM41.6966 45.89V44.89H38.0786V45.89V46.89H41.6966V45.89ZM38.0786 45.89V44.89C36.0591 44.89 34.8105 44.4237 34.0957 43.7089L33.3886 44.416L32.6815 45.1231C33.932 46.3736 35.81 46.89 38.0786 46.89V45.89ZM33.3886 44.416L34.1112 43.7248C33.3615 42.941 32.9146 41.7495 32.9146 39.994H31.9146H30.9146C30.9146 42.0799 31.4503 43.8363 32.6659 45.1072L33.3886 44.416ZM31.9146 39.994H32.9146V31.954H31.9146H30.9146V39.994H31.9146ZM31.9146 31.954V32.954H37.8776V31.954V30.954H31.9146V31.954ZM56.9804 13.194V12.194H55.9804V13.194H56.9804ZM63.0104 13.194H64.0104V12.194H63.0104V13.194ZM63.4124 40.597L64.1195 39.8899L64.1195 39.8899L63.4124 40.597ZM69.0404 40.53L69.6989 41.2826L69.724 41.2606L69.7475 41.2371L69.0404 40.53ZM69.5764 36.51V35.51H68.5764V36.51H69.5764ZM69.8444 36.51H70.8444V35.51H69.8444V36.51ZM68.6384 44.818L67.9741 44.0706L67.9741 44.0706L68.6384 44.818ZM58.4544 44.416L57.7318 45.1072L57.7395 45.1153L57.7473 45.1231L58.4544 44.416ZM69.5764 13.194V12.194H68.5764V13.194H69.5764ZM75.6064 13.194H76.6064V12.194H75.6064V13.194ZM75.6064 45.89V46.89H76.6064V45.89H75.6064ZM69.5764 45.89H68.5764V46.89H69.5764V45.89ZM56.9804 13.194V14.194H63.0104V13.194V12.194H56.9804V13.194ZM63.0104 13.194H62.0104V39.056H63.0104H64.0104V13.194H63.0104ZM63.0104 39.056H62.0104C62.0104 39.8498 62.1331 40.7319 62.7053 41.3041L63.4124 40.597L64.1195 39.8899C64.1518 39.9221 64.1178 39.9087 64.0785 39.7583C64.0401 39.6108 64.0104 39.3837 64.0104 39.056H63.0104ZM63.4124 40.597L62.7053 41.3041C63.0132 41.612 63.4046 41.7766 63.7729 41.8686C64.1472 41.9622 64.5702 41.999 65.0204 41.999V40.999V39.999C64.6667 39.999 64.4197 39.9688 64.258 39.9284C64.0902 39.8864 64.0797 39.85 64.1195 39.8899L63.4124 40.597ZM65.0204 40.999V41.999H67.3654V40.999V39.999H65.0204V40.999ZM67.3654 40.999V41.999C68.2299 41.999 69.0774 41.8264 69.6989 41.2826L69.0404 40.53L68.3819 39.7774C68.2887 39.859 68.0196 39.999 67.3654 39.999V40.999ZM69.0404 40.53L69.7475 41.2371C70.3928 40.5919 70.5764 39.625 70.5764 38.654H69.5764H68.5764C68.5764 39.4696 68.4027 39.7535 68.3333 39.8229L69.0404 40.53ZM69.5764 38.654H70.5764V36.51H69.5764H68.5764V38.654H69.5764ZM69.5764 36.51V37.51H69.8444V36.51V35.51H69.5764V36.51ZM69.8444 36.51H68.8444V41.334H69.8444H70.8444V36.51H69.8444ZM69.8444 41.334H68.8444C68.8444 42.7989 68.4773 43.6233 67.9741 44.0706L68.6384 44.818L69.3028 45.5654C70.4076 44.5834 70.8444 43.0851 70.8444 41.334H69.8444ZM68.6384 44.818L67.9741 44.0706C67.395 44.5853 66.58 44.89 65.4224 44.89V45.89V46.89C66.9448 46.89 68.2739 46.48 69.3028 45.5654L68.6384 44.818ZM65.4224 45.89V44.89H63.0104V45.89V46.89H65.4224V45.89ZM63.0104 45.89V44.89C61.0948 44.89 59.8832 44.4305 59.1615 43.7089L58.4544 44.416L57.7473 45.1231C58.991 46.3668 60.8167 46.89 63.0104 46.89V45.89ZM58.4544 44.416L59.1771 43.7248C58.4274 42.941 57.9804 41.7495 57.9804 39.994H56.9804H55.9804C55.9804 42.0799 56.5162 43.8363 57.7318 45.1072L58.4544 44.416ZM56.9804 39.994H57.9804V13.194H56.9804H55.9804V39.994H56.9804ZM69.5764 13.194V14.194H75.6064V13.194V12.194H69.5764V13.194ZM75.6064 13.194H74.6064V45.89H75.6064H76.6064V13.194H75.6064ZM75.6064 45.89V44.89H69.5764V45.89V46.89H75.6064V45.89ZM69.5764 45.89H70.5764V41.803H69.5764H68.5764V45.89H69.5764ZM69.5764 41.803H70.5764V41.401H69.5764H68.5764V41.803H69.5764ZM69.5764 41.401H70.5764V13.194H69.5764H68.5764V41.401H69.5764ZM94.1811 13.127H95.1811V12.127H94.1811V13.127ZM94.1811 18.42V19.42H95.1811V18.42H94.1811ZM87.5481 24.718V25.718H88.5481V24.718H87.5481ZM87.2801 24.718H86.2801V25.718H87.2801V24.718ZM87.8831 16.276L86.9803 15.8461L86.9756 15.8558L86.9712 15.8656L87.8831 16.276ZM89.7591 13.998L89.1944 13.1727L89.1839 13.1799L89.1736 13.1873L89.7591 13.998ZM87.5481 45.89V46.89H88.5481V45.89H87.5481ZM81.5181 45.89H80.5181V46.89H81.5181V45.89ZM81.5181 13.194V12.194H80.5181V13.194H81.5181ZM87.5481 13.194H88.5481V12.194H87.5481V13.194ZM94.1811 13.127H93.1811V18.42H94.1811H95.1811V13.127H94.1811ZM94.1811 18.42V17.42H91.7691V18.42V19.42H94.1811V18.42ZM91.7691 18.42V17.42C90.1664 17.42 88.7941 17.8911 87.8463 18.9894C86.9228 20.0595 86.5481 21.5597 86.5481 23.311H87.5481H88.5481C88.5481 21.8017 88.8769 20.8564 89.3604 20.2961C89.8196 19.764 90.5578 19.42 91.7691 19.42V18.42ZM87.5481 23.311H86.5481V24.718H87.5481H88.5481V23.311H87.5481ZM87.5481 24.718V23.718H87.2801V24.718V25.718H87.5481V24.718ZM87.2801 24.718H88.2801V19.023H87.2801H86.2801V24.718H87.2801ZM87.2801 19.023H88.2801C88.2801 18.2328 88.4485 17.4565 88.7951 16.6864L87.8831 16.276L86.9712 15.8656C86.5138 16.8821 86.2801 17.9372 86.2801 19.023H87.2801ZM87.8831 16.276L88.786 16.7059C89.1641 15.912 89.6832 15.2863 90.3446 14.8087L89.7591 13.998L89.1736 13.1873C88.227 13.871 87.4955 14.764 86.9803 15.8461L87.8831 16.276ZM89.7591 13.998L90.3238 14.8233C90.979 14.3751 91.801 14.127 92.8411 14.127V13.127V12.127C91.4693 12.127 90.2366 12.4596 89.1944 13.1727L89.7591 13.998ZM92.8411 13.127V14.127H94.1811V13.127V12.127H92.8411V13.127ZM87.5481 45.89V44.89H81.5181V45.89V46.89H87.5481V45.89ZM81.5181 45.89H82.5181V13.194H81.5181H80.5181V45.89H81.5181ZM81.5181 13.194V14.194H87.5481V13.194V12.194H81.5181V13.194ZM87.5481 13.194H86.5481V19.291H87.5481H88.5481V13.194H87.5481ZM87.5481 19.291H86.5481V45.89H87.5481H88.5481V19.291H87.5481ZM122.041 3.948V2.948H121.183L121.052 3.79512L122.041 3.948ZM128.272 3.948L129.256 4.12564L129.468 2.948H128.272V3.948ZM120.701 45.89V46.89H121.536L121.685 46.0676L120.701 45.89ZM112.125 45.89L111.14 46.0676L111.289 46.89H112.125V45.89ZM104.554 3.948V2.948H103.357L103.569 4.12564L104.554 3.948ZM110.785 3.948L111.773 3.79512L111.642 2.948H110.785V3.948ZM116.413 40.329L115.424 40.4819L117.401 40.4819L116.413 40.329ZM122.041 3.948V4.948H128.272V3.948V2.948H122.041V3.948ZM128.272 3.948L127.287 3.77036L119.716 45.7124L120.701 45.89L121.685 46.0676L129.256 4.12564L128.272 3.948ZM120.701 45.89V44.89H112.125V45.89V46.89H120.701V45.89ZM112.125 45.89L113.109 45.7124L105.538 3.77036L104.554 3.948L103.569 4.12564L111.14 46.0676L112.125 45.89ZM104.554 3.948V4.948H110.785V3.948V2.948H104.554V3.948ZM110.785 3.948L109.796 4.10087L115.424 40.4819L116.413 40.329L117.401 40.1761L111.773 3.79512L110.785 3.948ZM116.413 40.329L117.401 40.4819L123.029 4.10087L122.041 3.948L121.052 3.79512L115.424 40.1761L116.413 40.329ZM137.602 45.89V46.89H138.602V45.89H137.602ZM131.572 45.89H130.572V46.89H131.572V45.89ZM131.572 13.194V12.194H130.572V13.194H131.572ZM137.602 13.194H138.602V12.194H137.602V13.194ZM131.438 6.963H130.438V7.963H131.438V6.963ZM131.438 0.999998V-1.72853e-06H130.438V0.999998H131.438ZM137.736 0.999998H138.736V-1.72853e-06H137.736V0.999998ZM137.736 6.963V7.963H138.736V6.963H137.736ZM137.602 45.89V44.89H131.572V45.89V46.89H137.602V45.89ZM131.572 45.89H132.572V13.194H131.572H130.572V45.89H131.572ZM131.572 13.194V14.194H137.602V13.194V12.194H131.572V13.194ZM137.602 13.194H136.602V45.89H137.602H138.602V13.194H137.602ZM131.438 6.963H132.438V0.999998H131.438H130.438V6.963H131.438ZM131.438 0.999998V2H137.736V0.999998V-1.72853e-06H131.438V0.999998ZM137.736 0.999998H136.736V6.963H137.736H138.736V0.999998H137.736ZM137.736 6.963V5.963H131.438V6.963V7.963H137.736V6.963ZM153.999 32.356L153.231 32.9962L153.289 33.066L153.359 33.1242L153.999 32.356ZM144.217 30.48L143.494 31.1712L143.502 31.1793L143.51 31.1871L144.217 30.48ZM144.217 14.735L143.51 14.0279L143.51 14.0279L144.217 14.735ZM158.622 14.735L157.899 15.4262L157.915 15.4423L157.931 15.4576L158.622 14.735ZM160.163 22.306V23.306H161.163V22.306H160.163ZM154.267 22.306H153.267V23.306H154.267V22.306ZM153.865 18.219L153.097 18.8592L153.155 18.929L153.225 18.9872L153.865 18.219ZM149.041 18.219L149.681 18.9872L149.716 18.9582L149.748 18.9261L149.041 18.219ZM149.041 26.996L148.334 27.7031L148.366 27.7352L148.401 27.7642L149.041 26.996ZM158.823 28.872L158.1 29.5632L158.108 29.5712L158.116 29.5791L158.823 28.872ZM158.756 44.416L159.463 45.1231L159.463 45.1231L158.756 44.416ZM144.351 44.416L143.628 45.1072L143.644 45.1233L143.66 45.1386L144.351 44.416ZM142.877 36.778V35.778H141.877V36.778H142.877ZM148.84 36.778H149.84V35.778H148.84V36.778ZM149.242 40.865L149.949 40.1579L149.949 40.1579L149.242 40.865ZM153.999 40.865L153.292 40.1579L153.26 40.19L153.231 40.2248L153.999 40.865ZM154.401 39.324H155.401V33.897H154.401H153.401V39.324H154.401ZM154.401 33.897H155.401C155.401 33.4487 155.365 33.0262 155.268 32.6563C155.174 32.2966 154.997 31.8862 154.639 31.5878L153.999 32.356L153.359 33.1242C153.269 33.0491 153.293 33.0072 153.333 33.1612C153.37 33.3049 153.401 33.5413 153.401 33.897H154.401ZM153.999 32.356L154.767 31.7158C154.461 31.3485 154.034 31.175 153.672 31.0844C153.294 30.9899 152.859 30.954 152.391 30.954V31.954V32.954C152.772 32.954 153.029 32.9851 153.187 33.0246C153.361 33.068 153.314 33.0955 153.231 32.9962L153.999 32.356ZM152.391 31.954V30.954H148.974V31.954V32.954H152.391V31.954ZM148.974 31.954V30.954C146.903 30.954 145.636 30.4845 144.924 29.7729L144.217 30.48L143.51 31.1871C144.764 32.4408 146.668 32.954 148.974 32.954V31.954ZM144.217 30.48L144.94 29.7888C144.19 29.005 143.743 27.8135 143.743 26.058H142.743H141.743C141.743 28.1439 142.279 29.9003 143.494 31.1712L144.217 30.48ZM142.743 26.058H143.743V19.157H142.743H141.743V26.058H142.743ZM142.743 19.157H143.743C143.743 17.3458 144.195 16.1711 144.924 15.4421L144.217 14.735L143.51 14.0279C142.274 15.2642 141.743 17.0375 141.743 19.157H142.743ZM144.217 14.735L144.924 15.4421C145.691 14.6755 146.97 14.194 148.974 14.194V13.194V12.194C146.69 12.194 144.798 12.7398 143.51 14.0279L144.217 14.735ZM148.974 13.194V14.194H153.865V13.194V12.194H148.974V13.194ZM153.865 13.194V14.194C155.926 14.194 157.186 14.6808 157.899 15.4262L158.622 14.735L159.345 14.0438C158.092 12.7345 156.182 12.194 153.865 12.194V13.194ZM158.622 14.735L157.931 15.4576C158.695 16.1886 159.163 17.3574 159.163 19.157H160.163H161.163C161.163 17.0259 160.604 15.2468 159.313 14.0124L158.622 14.735ZM160.163 19.157H159.163V22.306H160.163H161.163V19.157H160.163ZM160.163 22.306V21.306H154.267V22.306V23.306H160.163V22.306ZM154.267 22.306H155.267V19.76H154.267H153.267V22.306H154.267ZM154.267 19.76H155.267C155.267 19.3117 155.231 18.8892 155.134 18.5193C155.04 18.1596 154.863 17.7492 154.505 17.4508L153.865 18.219L153.225 18.9872C153.135 18.9121 153.159 18.8702 153.199 19.0242C153.236 19.1679 153.267 19.4043 153.267 19.76H154.267ZM153.865 18.219L154.633 17.5788C154.327 17.2115 153.9 17.038 153.538 16.9474C153.16 16.8529 152.725 16.817 152.257 16.817V17.817V18.817C152.638 18.817 152.895 18.848 153.053 18.8876C153.227 18.931 153.18 18.9585 153.097 18.8592L153.865 18.219ZM152.257 17.817V16.817H150.649V17.817V18.817H152.257V17.817ZM150.649 17.817V16.817C150.199 16.817 149.776 16.8538 149.402 16.9474C149.033 17.0394 148.642 17.204 148.334 17.5119L149.041 18.219L149.748 18.9261C149.708 18.966 149.719 18.9296 149.887 18.8876C150.048 18.8472 150.295 18.817 150.649 18.817V17.817ZM149.041 18.219L148.401 17.4508C148.043 17.7492 147.866 18.1596 147.772 18.5193C147.675 18.8892 147.639 19.3117 147.639 19.76H148.639H149.639C149.639 19.4043 149.67 19.1679 149.707 19.0242C149.747 18.8702 149.771 18.9121 149.681 18.9872L149.041 18.219ZM148.639 19.76H147.639V25.388H148.639H149.639V19.76H148.639ZM148.639 25.388H147.639C147.639 25.8383 147.676 26.2612 147.769 26.6355C147.861 27.0038 148.026 27.3952 148.334 27.7031L149.041 26.996L149.748 26.2889C149.788 26.3288 149.752 26.3182 149.71 26.1505C149.669 25.9888 149.639 25.7417 149.639 25.388H148.639ZM149.041 26.996L148.401 27.7642C148.713 28.0241 149.094 28.1542 149.44 28.2262C149.798 28.3009 150.207 28.331 150.649 28.331V27.331V26.331C150.287 26.331 150.026 26.3053 149.848 26.2683C149.658 26.2287 149.637 26.1913 149.681 26.2278L149.041 26.996ZM150.649 27.331V28.331H154.133V27.331V26.331H150.649V27.331ZM154.133 27.331V28.331C156.142 28.331 157.384 28.8143 158.1 29.5632L158.823 28.872L159.546 28.1808C158.297 26.875 156.412 26.331 154.133 26.331V27.331ZM158.823 28.872L158.116 29.5791C158.845 30.3081 159.297 31.4828 159.297 33.294H160.297H161.297C161.297 31.1745 160.766 29.4012 159.53 28.1649L158.823 28.872ZM160.297 33.294H159.297V39.994H160.297H161.297V33.294H160.297ZM160.297 39.994H159.297C159.297 41.7379 158.834 42.9236 158.049 43.7089L158.756 44.416L159.463 45.1231C160.732 43.8538 161.297 42.0914 161.297 39.994H160.297ZM158.756 44.416L158.049 43.7089C157.334 44.4237 156.085 44.89 154.066 44.89V45.89V46.89C156.335 46.89 158.213 46.3736 159.463 45.1231L158.756 44.416ZM154.066 45.89V44.89H149.108V45.89V46.89H154.066V45.89ZM149.108 45.89V44.89C147.093 44.89 145.808 44.4257 145.042 43.6934L144.351 44.416L143.66 45.1386C144.949 46.3716 146.835 46.89 149.108 46.89V45.89ZM144.351 44.416L145.074 43.7248C144.324 42.941 143.877 41.7495 143.877 39.994H142.877H141.877C141.877 42.0799 142.413 43.8363 143.628 45.1072L144.351 44.416ZM142.877 39.994H143.877V36.778H142.877H141.877V39.994H142.877ZM142.877 36.778V37.778H148.84V36.778V35.778H142.877V36.778ZM148.84 36.778H147.84V39.324H148.84H149.84V36.778H148.84ZM148.84 39.324H147.84C147.84 40.1178 147.963 40.9999 148.535 41.5721L149.242 40.865L149.949 40.1579C149.981 40.1901 149.947 40.1767 149.908 40.0263C149.87 39.8788 149.84 39.6517 149.84 39.324H148.84ZM149.242 40.865L148.535 41.5721C149.107 42.1443 149.989 42.267 150.783 42.267V41.267V40.267C150.455 40.267 150.228 40.2374 150.081 40.1989C149.93 40.1597 149.917 40.1256 149.949 40.1579L149.242 40.865ZM150.783 41.267V42.267H152.391V41.267V40.267H150.783V41.267ZM152.391 41.267V42.267C152.859 42.267 153.294 42.2311 153.672 42.1366C154.034 42.046 154.461 41.8725 154.767 41.5052L153.999 40.865L153.231 40.2248C153.314 40.1255 153.361 40.153 153.187 40.1964C153.029 40.2359 152.772 40.267 152.391 40.267V41.267ZM153.999 40.865L154.706 41.5721C155.278 40.9999 155.401 40.1178 155.401 39.324H154.401H153.401C153.401 39.6517 153.371 39.8788 153.333 40.0263C153.294 40.1767 153.26 40.1901 153.292 40.1579L153.999 40.865ZM171.494 45.89V46.89H172.494V45.89H171.494ZM165.464 45.89H164.464V46.89H165.464V45.89ZM165.464 13.194V12.194H164.464V13.194H165.464ZM171.494 13.194H172.494V12.194H171.494V13.194ZM165.33 6.963H164.33V7.963H165.33V6.963ZM165.33 0.999998V-1.72853e-06H164.33V0.999998H165.33ZM171.628 0.999998H172.628V-1.72853e-06H171.628V0.999998ZM171.628 6.963V7.963H172.628V6.963H171.628ZM171.494 45.89V44.89H165.464V45.89V46.89H171.494V45.89ZM165.464 45.89H166.464V13.194H165.464H164.464V45.89H165.464ZM165.464 13.194V14.194H171.494V13.194V12.194H165.464V13.194ZM171.494 13.194H170.494V45.89H171.494H172.494V13.194H171.494ZM165.33 6.963H166.33V0.999998H165.33H164.33V6.963H165.33ZM165.33 0.999998V2H171.628V0.999998V-1.72853e-06H165.33V0.999998ZM171.628 0.999998H170.628V6.963H171.628H172.628V0.999998H171.628ZM171.628 6.963V5.963H165.33V6.963V7.963H171.628V6.963ZM190.639 35.17H189.639V36.17H190.639V35.17ZM190.237 18.353L189.468 18.9932L189.527 19.063L189.596 19.1212L190.237 18.353ZM186.619 17.951H185.619V18.951H186.619V17.951ZM186.619 13.194V12.194H185.619V13.194H186.619ZM195.128 14.735L194.405 15.4262L194.413 15.4342L194.421 15.4421L195.128 14.735ZM196.602 35.17V36.17H197.602V35.17H196.602ZM190.639 32.356V31.356H189.639V32.356H190.639ZM196.602 32.356H197.602V31.356H196.602V32.356ZM195.128 44.416L195.835 45.1231L195.843 45.1153L195.85 45.1072L195.128 44.416ZM186.284 45.89H185.284V46.89H186.284V45.89ZM186.284 41.133V40.133H185.284V41.133H186.284ZM190.237 40.731L189.53 40.0239L189.497 40.056L189.468 40.0908L190.237 40.731ZM183.001 35.237V36.237H184.001V35.237H183.001ZM177.038 35.237H176.038V36.237H177.038V35.237ZM178.512 14.735L179.219 15.4421L179.227 15.4342L179.234 15.4262L178.512 14.735ZM187.021 13.194H188.021V12.194H187.021V13.194ZM187.021 17.951V18.951H188.021V17.951H187.021ZM183.403 18.353L184.043 19.1212L184.078 19.0922L184.11 19.0601L183.403 18.353ZM183.001 31.954H184.001V30.954H183.001V31.954ZM183.403 40.731L184.11 40.0239L184.11 40.0239L183.403 40.731ZM186.82 41.133H187.82V40.133H186.82V41.133ZM186.82 45.89V46.89H187.82V45.89H186.82ZM178.512 44.416L177.789 45.1072L177.797 45.1153L177.805 45.1231L178.512 44.416ZM177.038 31.954V30.954H176.038V31.954H177.038ZM190.639 35.17H191.639V19.961H190.639H189.639V35.17H190.639ZM190.639 19.961H191.639C191.639 19.4935 191.603 19.0576 191.508 18.68C191.418 18.3175 191.244 17.8908 190.877 17.5848L190.237 18.353L189.596 19.1212C189.497 19.0385 189.525 18.9914 189.568 19.165C189.608 19.3234 189.639 19.5798 189.639 19.961H190.639ZM190.237 18.353L191.005 17.7128C190.699 17.3455 190.272 17.172 189.91 17.0814C189.532 16.9869 189.096 16.951 188.629 16.951V17.951V18.951C189.01 18.951 189.266 18.9821 189.425 19.0216C189.598 19.065 189.551 19.0925 189.468 18.9932L190.237 18.353ZM188.629 17.951V16.951H186.619V17.951V18.951H188.629V17.951ZM186.619 17.951H187.619V13.194H186.619H185.619V17.951H186.619ZM186.619 13.194V14.194H190.371V13.194V12.194H186.619V13.194ZM190.371 13.194V14.194C192.431 14.194 193.692 14.6808 194.405 15.4262L195.128 14.735L195.85 14.0438C194.598 12.7345 192.687 12.194 190.371 12.194V13.194ZM195.128 14.735L194.421 15.4421C195.15 16.1711 195.602 17.3458 195.602 19.157H196.602H197.602C197.602 17.0375 197.071 15.2642 195.835 14.0279L195.128 14.735ZM196.602 19.157H195.602V35.17H196.602H197.602V19.157H196.602ZM196.602 35.17V34.17H190.639V35.17V36.17H196.602V35.17ZM190.639 39.123H191.639V32.356H190.639H189.639V39.123H190.639ZM190.639 32.356V33.356H196.602V32.356V31.356H190.639V32.356ZM196.602 32.356H195.602V39.994H196.602H197.602V32.356H196.602ZM196.602 39.994H195.602C195.602 41.7495 195.155 42.941 194.405 43.7248L195.128 44.416L195.85 45.1072C197.066 43.8363 197.602 42.0799 197.602 39.994H196.602ZM195.128 44.416L194.421 43.7089C193.709 44.4205 192.442 44.89 190.371 44.89V45.89V46.89C192.677 46.89 194.581 46.3768 195.835 45.1231L195.128 44.416ZM190.371 45.89V44.89H186.284V45.89V46.89H190.371V45.89ZM186.284 45.89H187.284V41.133H186.284H185.284V45.89H186.284ZM186.284 41.133V42.133H188.629V41.133V40.133H186.284V41.133ZM188.629 41.133V42.133C189.096 42.133 189.532 42.0971 189.91 42.0026C190.272 41.912 190.699 41.7385 191.005 41.3712L190.237 40.731L189.468 40.0908C189.551 39.9915 189.598 40.019 189.425 40.0624C189.266 40.1019 189.01 40.133 188.629 40.133V41.133ZM190.237 40.731L190.944 41.4381C191.252 41.1302 191.416 40.7388 191.508 40.3705C191.602 39.9962 191.639 39.5733 191.639 39.123H190.639H189.639C189.639 39.4767 189.608 39.7238 189.568 39.8855C189.526 40.0532 189.49 40.0638 189.53 40.0239L190.237 40.731ZM183.001 19.961H182.001V35.237H183.001H184.001V19.961H183.001ZM183.001 35.237V34.237H177.038V35.237V36.237H183.001V35.237ZM177.038 35.237H178.038V19.157H177.038H176.038V35.237H177.038ZM177.038 19.157H178.038C178.038 17.3458 178.49 16.1711 179.219 15.4421L178.512 14.735L177.805 14.0279C176.568 15.2642 176.038 17.0375 176.038 19.157H177.038ZM178.512 14.735L179.234 15.4262C179.951 14.6773 181.193 14.194 183.202 14.194V13.194V12.194C180.922 12.194 179.038 12.738 177.789 14.0438L178.512 14.735ZM183.202 13.194V14.194H187.021V13.194V12.194H183.202V13.194ZM187.021 13.194H186.021V17.951H187.021H188.021V13.194H187.021ZM187.021 17.951V16.951H185.011V17.951V18.951H187.021V17.951ZM185.011 17.951V16.951C184.56 16.951 184.137 16.9878 183.763 17.0814C183.395 17.1734 183.003 17.338 182.696 17.6459L183.403 18.353L184.11 19.0601C184.07 19.1 184.08 19.0636 184.248 19.0216C184.41 18.9812 184.657 18.951 185.011 18.951V17.951ZM183.403 18.353L182.762 17.5848C182.395 17.8908 182.222 18.3175 182.131 18.68C182.037 19.0576 182.001 19.4935 182.001 19.961H183.001H184.001C184.001 19.5798 184.032 19.3234 184.071 19.165C184.115 18.9914 184.142 19.0385 184.043 19.1212L183.403 18.353ZM183.001 31.954H182.001V39.123H183.001H184.001V31.954H183.001ZM183.001 39.123H182.001C182.001 39.5733 182.037 39.9962 182.131 40.3705C182.223 40.7388 182.388 41.1302 182.696 41.4381L183.403 40.731L184.11 40.0239C184.15 40.0638 184.113 40.0532 184.071 39.8855C184.031 39.7238 184.001 39.4767 184.001 39.123H183.001ZM183.403 40.731L182.696 41.4381C183.003 41.746 183.395 41.9106 183.763 42.0026C184.137 42.0962 184.56 42.133 185.011 42.133V41.133V40.133C184.657 40.133 184.41 40.1028 184.248 40.0624C184.08 40.0204 184.07 39.984 184.11 40.0239L183.403 40.731ZM185.011 41.133V42.133H186.82V41.133V40.133H185.011V41.133ZM186.82 41.133H185.82V45.89H186.82H187.82V41.133H186.82ZM186.82 45.89V44.89H183.202V45.89V46.89H186.82V45.89ZM183.202 45.89V44.89C181.182 44.89 179.934 44.4237 179.219 43.7089L178.512 44.416L177.805 45.1231C179.055 46.3736 180.933 46.89 183.202 46.89V45.89ZM178.512 44.416L179.234 43.7248C178.485 42.941 178.038 41.7495 178.038 39.994H177.038H176.038C176.038 42.0799 176.573 43.8363 177.789 45.1072L178.512 44.416ZM177.038 39.994H178.038V31.954H177.038H176.038V39.994H177.038ZM177.038 31.954V32.954H183.001V31.954V30.954H177.038V31.954ZM208.2 45.89V46.89H209.2V45.89H208.2ZM202.17 45.89H201.17V46.89H202.17V45.89ZM202.17 13.194V12.194H201.17V13.194H202.17ZM208.2 13.194H209.2V12.194H208.2V13.194ZM220.796 45.89V46.89H221.796V45.89H220.796ZM214.766 45.89H213.766V46.89H214.766V45.89ZM214.364 18.487L213.657 19.1941L213.689 19.2262L213.724 19.2552L214.364 18.487ZM208.736 18.621L209.444 19.3281L209.444 19.3281L208.736 18.621ZM208.2 22.574V23.574H209.2V22.574H208.2ZM207.932 22.574H206.932V23.574H207.932V22.574ZM209.138 14.266L208.474 13.5186L208.474 13.5186L209.138 14.266ZM219.322 14.735L218.6 15.4262L218.608 15.4342L218.615 15.4421L219.322 14.735ZM208.2 45.89V44.89H202.17V45.89V46.89H208.2V45.89ZM202.17 45.89H203.17V13.194H202.17H201.17V45.89H202.17ZM202.17 13.194V14.194H208.2V13.194V12.194H202.17V13.194ZM208.2 13.194H207.2V17.281H208.2H209.2V13.194H208.2ZM208.2 17.281H207.2V17.683H208.2H209.2V17.281H208.2ZM208.2 17.683H207.2V45.89H208.2H209.2V17.683H208.2ZM220.796 45.89V44.89H214.766V45.89V46.89H220.796V45.89ZM214.766 45.89H215.766V20.028H214.766H213.766V45.89H214.766ZM214.766 20.028H215.766C215.766 19.5797 215.73 19.1572 215.634 18.7873C215.54 18.4276 215.363 18.0172 215.005 17.7188L214.364 18.487L213.724 19.2552C213.634 19.1801 213.658 19.1382 213.698 19.2922C213.736 19.4359 213.766 19.6723 213.766 20.028H214.766ZM214.364 18.487L215.072 17.7799C214.764 17.472 214.372 17.3074 214.004 17.2154C213.63 17.1218 213.207 17.085 212.756 17.085V18.085V19.085C213.11 19.085 213.357 19.1152 213.519 19.1556C213.687 19.1976 213.697 19.234 213.657 19.1941L214.364 18.487ZM212.756 18.085V17.085H210.411V18.085V19.085H212.756V18.085ZM210.411 18.085V17.085C209.519 17.085 208.65 17.2929 208.029 17.9139L208.736 18.621L209.444 19.3281C209.537 19.2344 209.786 19.085 210.411 19.085V18.085ZM208.736 18.621L208.029 17.9139C207.391 18.5519 207.2 19.4859 207.2 20.43H208.2H209.2C209.2 19.6767 209.367 19.4048 209.444 19.3281L208.736 18.621ZM208.2 20.43H207.2V22.574H208.2H209.2V20.43H208.2ZM208.2 22.574V21.574H207.932V22.574V23.574H208.2V22.574ZM207.932 22.574H208.932V17.75H207.932H206.932V22.574H207.932ZM207.932 17.75H208.932C208.932 16.2851 209.3 15.4607 209.803 15.0134L209.138 14.266L208.474 13.5186C207.369 14.5006 206.932 15.9989 206.932 17.75H207.932ZM209.138 14.266L209.803 15.0134C210.382 14.4987 211.197 14.194 212.354 14.194V13.194V12.194C210.832 12.194 209.503 12.604 208.474 13.5186L209.138 14.266ZM212.354 13.194V14.194H214.766V13.194V12.194H212.354V13.194ZM214.766 13.194V14.194C216.671 14.194 217.876 14.67 218.6 15.4262L219.322 14.735L220.045 14.0438C218.803 12.7453 216.971 12.194 214.766 12.194V13.194ZM219.322 14.735L218.615 15.4421C219.344 16.1711 219.796 17.3458 219.796 19.157H220.796H221.796C221.796 17.0375 221.266 15.2642 220.03 14.0279L219.322 14.735ZM220.796 19.157H219.796V45.89H220.796H221.796V19.157H220.796ZM225.837 37.649V36.649H224.837V37.649H225.837ZM232.604 37.649H233.604V36.649H232.604V37.649ZM232.604 42.004L233.548 42.3331L233.604 42.1733V42.004H232.604ZM227.981 55.27V56.27H228.692L228.925 55.5991L227.981 55.27ZM225.837 55.27H224.837V56.27H225.837V55.27ZM225.837 37.649V38.649H232.604V37.649V36.649H225.837V37.649ZM232.604 37.649H231.604V42.004H232.604H233.604V37.649H232.604ZM232.604 42.004L231.66 41.6749L227.037 54.9409L227.981 55.27L228.925 55.5991L233.548 42.3331L232.604 42.004ZM227.981 55.27V54.27H225.837V55.27V56.27H227.981V55.27ZM225.837 55.27H226.837V37.649H225.837H224.837V55.27H225.837ZM261.519 33.16H260.519V34.16H261.519V33.16ZM261.117 9.241L260.349 9.88118L260.407 9.95102L260.477 10.0092L261.117 9.241ZM257.298 8.839H256.298V9.839H257.298V8.839ZM257.298 3.948V2.948H256.298V3.948H257.298ZM266.075 5.489L265.353 6.18022L265.368 6.19628L265.384 6.21164L266.075 5.489ZM267.616 33.16V34.16H268.616V33.16H267.616ZM261.519 30.346V29.346H260.519V30.346H261.519ZM267.616 30.346H268.616V29.346H267.616V30.346ZM266.075 44.416L265.368 43.7089L265.368 43.7089L266.075 44.416ZM256.896 45.89H255.896V46.89H256.896V45.89ZM256.896 40.999V39.999H255.896V40.999H256.896ZM261.117 40.597L260.41 39.8899L260.378 39.922L260.349 39.9568L261.117 40.597ZM253.68 33.227V34.227H254.68V33.227H253.68ZM247.583 33.227H246.583V34.227H247.583V33.227ZM249.057 5.489L248.35 4.78189L248.35 4.78189L249.057 5.489ZM257.901 3.948H258.901V2.948H257.901V3.948ZM257.901 8.839V9.839H258.901V8.839H257.901ZM254.082 9.241L254.723 10.0092L254.757 9.98018L254.789 9.9481L254.082 9.241ZM253.68 29.877H254.68V28.877H253.68V29.877ZM257.767 40.999H258.767V39.999H257.767V40.999ZM257.767 45.89V46.89H258.767V45.89H257.767ZM249.057 44.416L248.335 45.1072L248.35 45.1233L248.366 45.1386L249.057 44.416ZM247.583 29.877V28.877H246.583V29.877H247.583ZM261.519 33.16H262.519V10.782H261.519H260.519V33.16H261.519ZM261.519 10.782H262.519C262.519 10.3337 262.483 9.91122 262.387 9.54132C262.293 9.18161 262.116 8.77124 261.758 8.47277L261.117 9.241L260.477 10.0092C260.387 9.93409 260.411 9.89221 260.451 10.0462C260.489 10.1899 260.519 10.4263 260.519 10.782H261.519ZM261.117 9.241L261.886 8.60081C261.58 8.23354 261.153 8.05996 260.79 7.96935C260.413 7.87494 259.977 7.839 259.509 7.839V8.839V9.839C259.891 9.839 260.147 9.87005 260.305 9.90964C260.479 9.95304 260.432 9.98045 260.349 9.88118L261.117 9.241ZM259.509 8.839V7.839H257.298V8.839V9.839H259.509V8.839ZM257.298 8.839H258.298V3.948H257.298H256.298V8.839H257.298ZM257.298 3.948V4.948H261.318V3.948V2.948H257.298V3.948ZM261.318 3.948V4.948C263.379 4.948 264.64 5.4348 265.353 6.18022L266.075 5.489L266.798 4.79777C265.546 3.48853 263.635 2.948 261.318 2.948V3.948ZM266.075 5.489L265.384 6.21164C266.153 6.9466 266.616 8.09705 266.616 9.844H267.616H268.616C268.616 7.74961 268.053 5.99673 266.767 4.76635L266.075 5.489ZM267.616 9.844H266.616V33.16H267.616H268.616V9.844H267.616ZM267.616 33.16V32.16H261.519V33.16V34.16H267.616V33.16ZM261.519 39.056H262.519V30.346H261.519H260.519V39.056H261.519ZM261.519 30.346V31.346H267.616V30.346V29.346H261.519V30.346ZM267.616 30.346H266.616V39.994H267.616H268.616V30.346H267.616ZM267.616 39.994H266.616C266.616 41.7379 266.154 42.9236 265.368 43.7089L266.075 44.416L266.782 45.1231C268.052 43.8538 268.616 42.0914 268.616 39.994H267.616ZM266.075 44.416L265.368 43.7089C264.657 44.4205 263.39 44.89 261.318 44.89V45.89V46.89C263.625 46.89 265.529 46.3768 266.782 45.1231L266.075 44.416ZM261.318 45.89V44.89H256.896V45.89V46.89H261.318V45.89ZM256.896 45.89H257.896V40.999H256.896H255.896V45.89H256.896ZM256.896 40.999V41.999H259.509V40.999V39.999H256.896V40.999ZM259.509 40.999V41.999C259.977 41.999 260.413 41.9631 260.79 41.8686C261.153 41.778 261.58 41.6045 261.886 41.2372L261.117 40.597L260.349 39.9568C260.432 39.8575 260.479 39.885 260.305 39.9284C260.147 39.9679 259.891 39.999 259.509 39.999V40.999ZM261.117 40.597L261.824 41.3041C262.397 40.7319 262.519 39.8498 262.519 39.056H261.519H260.519C260.519 39.3837 260.49 39.6108 260.451 39.7583C260.412 39.9087 260.378 39.9221 260.41 39.8899L261.117 40.597ZM253.68 10.782H252.68V33.227H253.68H254.68V10.782H253.68ZM253.68 33.227V32.227H247.583V33.227V34.227H253.68V33.227ZM247.583 33.227H248.583V9.844H247.583H246.583V33.227H247.583ZM247.583 9.844H248.583C248.583 8.08521 249.032 6.929 249.764 6.1961L249.057 5.489L248.35 4.78189C247.118 6.01432 246.583 7.76145 246.583 9.844H247.583ZM249.057 5.489L249.764 6.1961C250.528 5.43283 251.825 4.948 253.881 4.948V3.948V2.948C251.56 2.948 249.642 3.49049 248.35 4.78189L249.057 5.489ZM253.881 3.948V4.948H257.901V3.948V2.948H253.881V3.948ZM257.901 3.948H256.901V8.839H257.901H258.901V3.948H257.901ZM257.901 8.839V7.839H255.69V8.839V9.839H257.901V8.839ZM255.69 8.839V7.839C255.24 7.839 254.817 7.87578 254.443 7.96935C254.075 8.06142 253.683 8.22602 253.375 8.53389L254.082 9.241L254.789 9.9481C254.75 9.98797 254.76 9.95158 254.928 9.90964C255.09 9.86922 255.337 9.839 255.69 9.839V8.839ZM254.082 9.241L253.442 8.47277C253.084 8.77124 252.907 9.18161 252.813 9.54132C252.717 9.91122 252.68 10.3337 252.68 10.782H253.68H254.68C254.68 10.4263 254.711 10.1899 254.749 10.0462C254.789 9.89221 254.813 9.93409 254.723 10.0092L254.082 9.241ZM253.68 29.877H252.68V39.056H253.68H254.68V29.877H253.68ZM253.68 39.056H252.68C252.68 39.8498 252.803 40.7319 253.375 41.3041L254.082 40.597L254.789 39.8899C254.822 39.9221 254.788 39.9087 254.749 39.7583C254.71 39.6108 254.68 39.3837 254.68 39.056H253.68ZM254.082 40.597L253.375 41.3041C253.683 41.612 254.075 41.7766 254.443 41.8686C254.817 41.9622 255.24 41.999 255.69 41.999V40.999V39.999C255.337 39.999 255.09 39.9688 254.928 39.9284C254.76 39.8864 254.75 39.85 254.789 39.8899L254.082 40.597ZM255.69 40.999V41.999H257.767V40.999V39.999H255.69V40.999ZM257.767 40.999H256.767V45.89H257.767H258.767V40.999H257.767ZM257.767 45.89V44.89H253.881V45.89V46.89H257.767V45.89ZM253.881 45.89V44.89C251.815 44.89 250.511 44.4226 249.749 43.6934L249.057 44.416L248.366 45.1386C249.658 46.3747 251.57 46.89 253.881 46.89V45.89ZM249.057 44.416L249.78 43.7248C249.03 42.941 248.583 41.7495 248.583 39.994H247.583H246.583C246.583 42.0799 247.119 43.8363 248.335 45.1072L249.057 44.416ZM247.583 39.994H248.583V29.877H247.583H246.583V39.994H247.583ZM247.583 29.877V30.877H253.68V29.877V28.877H247.583V29.877ZM273.618 13.194V12.194H272.618V13.194H273.618ZM279.648 13.194H280.648V12.194H279.648V13.194ZM280.05 40.597L280.757 39.8899L280.757 39.8899L280.05 40.597ZM285.678 40.53L286.337 41.2826L286.362 41.2606L286.385 41.2371L285.678 40.53ZM286.214 36.51V35.51H285.214V36.51H286.214ZM286.482 36.51H287.482V35.51H286.482V36.51ZM285.276 44.818L284.612 44.0706L284.612 44.0706L285.276 44.818ZM275.092 44.416L274.369 45.1072L274.377 45.1153L274.385 45.1231L275.092 44.416ZM286.214 13.194V12.194H285.214V13.194H286.214ZM292.244 13.194H293.244V12.194H292.244V13.194ZM292.244 45.89V46.89H293.244V45.89H292.244ZM286.214 45.89H285.214V46.89H286.214V45.89ZM273.618 13.194V14.194H279.648V13.194V12.194H273.618V13.194ZM279.648 13.194H278.648V39.056H279.648H280.648V13.194H279.648ZM279.648 39.056H278.648C278.648 39.8498 278.771 40.7319 279.343 41.3041L280.05 40.597L280.757 39.8899C280.789 39.9221 280.755 39.9087 280.716 39.7583C280.678 39.6108 280.648 39.3837 280.648 39.056H279.648ZM280.05 40.597L279.343 41.3041C279.651 41.612 280.042 41.7766 280.411 41.8686C280.785 41.9622 281.208 41.999 281.658 41.999V40.999V39.999C281.304 39.999 281.057 39.9688 280.896 39.9284C280.728 39.8864 280.717 39.85 280.757 39.8899L280.05 40.597ZM281.658 40.999V41.999H284.003V40.999V39.999H281.658V40.999ZM284.003 40.999V41.999C284.868 41.999 285.715 41.8264 286.337 41.2826L285.678 40.53L285.02 39.7774C284.926 39.859 284.657 39.999 284.003 39.999V40.999ZM285.678 40.53L286.385 41.2371C287.03 40.5919 287.214 39.625 287.214 38.654H286.214H285.214C285.214 39.4696 285.04 39.7535 284.971 39.8229L285.678 40.53ZM286.214 38.654H287.214V36.51H286.214H285.214V38.654H286.214ZM286.214 36.51V37.51H286.482V36.51V35.51H286.214V36.51ZM286.482 36.51H285.482V41.334H286.482H287.482V36.51H286.482ZM286.482 41.334H285.482C285.482 42.7989 285.115 43.6233 284.612 44.0706L285.276 44.818L285.94 45.5654C287.045 44.5834 287.482 43.0851 287.482 41.334H286.482ZM285.276 44.818L284.612 44.0706C284.033 44.5853 283.218 44.89 282.06 44.89V45.89V46.89C283.583 46.89 284.912 46.48 285.94 45.5654L285.276 44.818ZM282.06 45.89V44.89H279.648V45.89V46.89H282.06V45.89ZM279.648 45.89V44.89C277.733 44.89 276.521 44.4305 275.799 43.7089L275.092 44.416L274.385 45.1231C275.629 46.3668 277.454 46.89 279.648 46.89V45.89ZM275.092 44.416L275.815 43.7248C275.065 42.941 274.618 41.7495 274.618 39.994H273.618H272.618C272.618 42.0799 273.154 43.8363 274.369 45.1072L275.092 44.416ZM273.618 39.994H274.618V13.194H273.618H272.618V39.994H273.618ZM286.214 13.194V14.194H292.244V13.194V12.194H286.214V13.194ZM292.244 13.194H291.244V45.89H292.244H293.244V13.194H292.244ZM292.244 45.89V44.89H286.214V45.89V46.89H292.244V45.89ZM286.214 45.89H287.214V41.803H286.214H285.214V45.89H286.214ZM286.214 41.803H287.214V41.401H286.214H285.214V41.803H286.214ZM286.214 41.401H287.214V13.194H286.214H285.214V41.401H286.214ZM310.819 13.127H311.819V12.127H310.819V13.127ZM310.819 18.42V19.42H311.819V18.42H310.819ZM304.186 24.718V25.718H305.186V24.718H304.186ZM303.918 24.718H302.918V25.718H303.918V24.718ZM304.521 16.276L303.618 15.8461L303.613 15.8558L303.609 15.8656L304.521 16.276ZM306.397 13.998L305.832 13.1727L305.822 13.1799L305.811 13.1873L306.397 13.998ZM304.186 45.89V46.89H305.186V45.89H304.186ZM298.156 45.89H297.156V46.89H298.156V45.89ZM298.156 13.194V12.194H297.156V13.194H298.156ZM304.186 13.194H305.186V12.194H304.186V13.194ZM310.819 13.127H309.819V18.42H310.819H311.819V13.127H310.819ZM310.819 18.42V17.42H308.407V18.42V19.42H310.819V18.42ZM308.407 18.42V17.42C306.804 17.42 305.432 17.8911 304.484 18.9894C303.561 20.0595 303.186 21.5597 303.186 23.311H304.186H305.186C305.186 21.8017 305.515 20.8564 305.998 20.2961C306.457 19.764 307.196 19.42 308.407 19.42V18.42ZM304.186 23.311H303.186V24.718H304.186H305.186V23.311H304.186ZM304.186 24.718V23.718H303.918V24.718V25.718H304.186V24.718ZM303.918 24.718H304.918V19.023H303.918H302.918V24.718H303.918ZM303.918 19.023H304.918C304.918 18.2328 305.086 17.4565 305.433 16.6864L304.521 16.276L303.609 15.8656C303.151 16.8821 302.918 17.9372 302.918 19.023H303.918ZM304.521 16.276L305.424 16.7059C305.802 15.912 306.321 15.2863 306.982 14.8087L306.397 13.998L305.811 13.1873C304.865 13.871 304.133 14.764 303.618 15.8461L304.521 16.276ZM306.397 13.998L306.962 14.8233C307.617 14.3751 308.439 14.127 309.479 14.127V13.127V12.127C308.107 12.127 306.874 12.4596 305.832 13.1727L306.397 13.998ZM309.479 13.127V14.127H310.819V13.127V12.127H309.479V13.127ZM304.186 45.89V44.89H298.156V45.89V46.89H304.186V45.89ZM298.156 45.89H299.156V13.194H298.156H297.156V45.89H298.156ZM298.156 13.194V14.194H304.186V13.194V12.194H298.156V13.194ZM304.186 13.194H303.186V19.291H304.186H305.186V13.194H304.186ZM304.186 19.291H303.186V45.89H304.186H305.186V19.291H304.186ZM8.57659 70.948V69.948H7.57659V70.948H8.57659ZM14.6736 70.948H15.6736V69.948H14.6736V70.948ZM14.6736 112.89V113.89H15.6736V112.89H14.6736ZM8.57659 112.89H7.57659V113.89H8.57659V112.89ZM24.3216 88.77H25.3216V87.77H24.3216V88.77ZM24.3216 93.661V94.661H25.3216V93.661H24.3216ZM11.9266 93.661H10.9266V94.661H11.9266V93.661ZM11.9266 88.77V87.77H10.9266V88.77H11.9266ZM26.3316 70.948H27.3316V69.948H26.3316V70.948ZM26.3316 75.839V76.839H27.3316V75.839H26.3316ZM11.7926 75.839H10.7926V76.839H11.7926V75.839ZM11.7926 70.948V69.948H10.7926V70.948H11.7926ZM26.8006 107.999H27.8006V106.999H26.8006V107.999ZM26.8006 112.89V113.89H27.8006V112.89H26.8006ZM11.7926 112.89H10.7926V113.89H11.7926V112.89ZM11.7926 107.999V106.999H10.7926V107.999H11.7926ZM8.57659 70.948V71.948H14.6736V70.948V69.948H8.57659V70.948ZM14.6736 70.948H13.6736V112.89H14.6736H15.6736V70.948H14.6736ZM14.6736 112.89V111.89H8.57659V112.89V113.89H14.6736V112.89ZM8.57659 112.89H9.57659V70.948H8.57659H7.57659V112.89H8.57659ZM24.3216 88.77H23.3216V93.661H24.3216H25.3216V88.77H24.3216ZM24.3216 93.661V92.661H11.9266V93.661V94.661H24.3216V93.661ZM11.9266 93.661H12.9266V88.77H11.9266H10.9266V93.661H11.9266ZM11.9266 88.77V89.77H24.3216V88.77V87.77H11.9266V88.77ZM26.3316 70.948H25.3316V75.839H26.3316H27.3316V70.948H26.3316ZM26.3316 75.839V74.839H11.7926V75.839V76.839H26.3316V75.839ZM11.7926 75.839H12.7926V70.948H11.7926H10.7926V75.839H11.7926ZM11.7926 70.948V71.948H26.3316V70.948V69.948H11.7926V70.948ZM26.8006 107.999H25.8006V112.89H26.8006H27.8006V107.999H26.8006ZM26.8006 112.89V111.89H11.7926V112.89V113.89H26.8006V112.89ZM11.7926 112.89H12.7926V107.999H11.7926H10.7926V112.89H11.7926ZM11.7926 107.999V108.999H26.8006V107.999V106.999H11.7926V107.999ZM42.5304 96.14L41.6241 95.7173L41.4225 96.1498L41.6317 96.5786L42.5304 96.14ZM50.7044 112.89V113.89H52.3051L51.6031 112.451L50.7044 112.89ZM44.3394 112.89L43.4214 113.287L43.6821 113.89H44.3394V112.89ZM39.4484 101.567L40.3664 101.17L39.4356 99.0156L38.5265 101.18L39.4484 101.567ZM34.6914 112.89V113.89H35.356L35.6134 113.277L34.6914 112.89ZM28.3934 112.89L27.4926 112.456L26.8014 113.89H28.3934V112.89ZM36.4334 96.207L37.3343 96.6411L37.5415 96.2111L37.3375 95.7796L36.4334 96.207ZM28.8624 80.194V79.194H27.2835L27.9584 80.6214L28.8624 80.194ZM35.2944 80.194L36.2249 79.8276L35.9754 79.194H35.2944V80.194ZM39.5154 90.914L38.5849 91.2804L39.5229 93.6624L40.4479 91.2753L39.5154 90.914ZM43.6694 80.194V79.194H42.9845L42.737 79.8327L43.6694 80.194ZM49.9674 80.194L50.8737 80.6167L51.5372 79.194H49.9674V80.194ZM42.5304 96.14L41.6317 96.5786L49.8057 113.329L50.7044 112.89L51.6031 112.451L43.4291 95.7014L42.5304 96.14ZM50.7044 112.89V111.89H44.3394V112.89V113.89H50.7044V112.89ZM44.3394 112.89L45.2574 112.493L40.3664 101.17L39.4484 101.567L38.5304 101.964L43.4214 113.287L44.3394 112.89ZM39.4484 101.567L38.5265 101.18L33.7695 112.503L34.6914 112.89L35.6134 113.277L40.3704 101.954L39.4484 101.567ZM34.6914 112.89V111.89H28.3934V112.89V113.89H34.6914V112.89ZM28.3934 112.89L29.2943 113.324L37.3343 96.6411L36.4334 96.207L35.5326 95.7729L27.4926 112.456L28.3934 112.89ZM36.4334 96.207L37.3375 95.7796L29.7665 79.7666L28.8624 80.194L27.9584 80.6214L35.5294 96.6344L36.4334 96.207ZM28.8624 80.194V81.194H35.2944V80.194V79.194H28.8624V80.194ZM35.2944 80.194L34.3639 80.5604L38.5849 91.2804L39.5154 90.914L40.4459 90.5476L36.2249 79.8276L35.2944 80.194ZM39.5154 90.914L40.4479 91.2753L44.6019 80.5553L43.6694 80.194L42.737 79.8327L38.583 90.5527L39.5154 90.914ZM43.6694 80.194V81.194H49.9674V80.194V79.194H43.6694V80.194ZM49.9674 80.194L49.0611 79.7713L41.6241 95.7173L42.5304 96.14L43.4367 96.5627L50.8737 80.6167L49.9674 80.194ZM72.5328 97.681V98.681H73.5328V97.681H72.5328ZM66.5028 97.681H65.5028V98.681H66.5028V97.681ZM66.1008 85.487L65.3937 86.1941L65.4258 86.2262L65.4606 86.2552L66.1008 85.487ZM60.4728 85.621L61.1799 86.3281L61.1799 86.3281L60.4728 85.621ZM59.9368 89.574V90.574H60.9368V89.574H59.9368ZM59.6688 89.574H58.6688V90.574H59.6688V89.574ZM60.8748 81.266L60.2104 80.5186L60.2104 80.5186L60.8748 81.266ZM71.0588 81.735L70.3362 82.4262L70.3438 82.4342L70.3517 82.4421L71.0588 81.735ZM59.9368 122.136V123.136H60.9368V122.136H59.9368ZM53.9068 122.136H52.9068V123.136H53.9068V122.136ZM53.9068 80.194V79.194H52.9068V80.194H53.9068ZM59.9368 80.194H60.9368V79.194H59.9368V80.194ZM66.5028 95.403V94.403H65.5028V95.403H66.5028ZM72.5328 95.403H73.5328V94.403H72.5328V95.403ZM71.0588 111.416L71.7659 112.123L71.7738 112.115L71.7814 112.107L71.0588 111.416ZM60.8748 111.818L60.2104 112.565L60.2104 112.565L60.8748 111.818ZM59.6688 104.113V103.113H58.6688V104.113H59.6688ZM59.9368 104.113H60.9368V103.113H59.9368V104.113ZM60.4728 107.53L59.7657 108.237L59.7892 108.261L59.8143 108.283L60.4728 107.53ZM72.5328 97.681V96.681H66.5028V97.681V98.681H72.5328V97.681ZM66.5028 97.681H67.5028V87.028H66.5028H65.5028V97.681H66.5028ZM66.5028 87.028H67.5028C67.5028 86.5797 67.4664 86.1572 67.3699 85.7873C67.2761 85.4276 67.0991 85.0172 66.741 84.7188L66.1008 85.487L65.4606 86.2552C65.3705 86.1801 65.3945 86.1382 65.4347 86.2922C65.4722 86.4359 65.5028 86.6723 65.5028 87.028H66.5028ZM66.1008 85.487L66.8079 84.7799C66.5 84.472 66.1086 84.3074 65.7403 84.2154C65.366 84.1218 64.9431 84.085 64.4928 84.085V85.085V86.085C64.8465 86.085 65.0936 86.1152 65.2553 86.1556C65.423 86.1976 65.4336 86.234 65.3937 86.1941L66.1008 85.487ZM64.4928 85.085V84.085H62.1478V85.085V86.085H64.4928V85.085ZM62.1478 85.085V84.085C61.2549 84.085 60.3867 84.2929 59.7657 84.9139L60.4728 85.621L61.1799 86.3281C61.2736 86.2344 61.5221 86.085 62.1478 86.085V85.085ZM60.4728 85.621L59.7657 84.9139C59.1277 85.5519 58.9368 86.4859 58.9368 87.43H59.9368H60.9368C60.9368 86.6767 61.1032 86.4048 61.1799 86.3281L60.4728 85.621ZM59.9368 87.43H58.9368V89.574H59.9368H60.9368V87.43H59.9368ZM59.9368 89.574V88.574H59.6688V89.574V90.574H59.9368V89.574ZM59.6688 89.574H60.6688V84.75H59.6688H58.6688V89.574H59.6688ZM59.6688 84.75H60.6688C60.6688 83.2851 61.036 82.4607 61.5392 82.0134L60.8748 81.266L60.2104 80.5186C59.1056 81.5006 58.6688 82.9989 58.6688 84.75H59.6688ZM60.8748 81.266L61.5392 82.0134C62.1182 81.4987 62.9332 81.194 64.0908 81.194V80.194V79.194C62.5684 79.194 61.2394 79.604 60.2104 80.5186L60.8748 81.266ZM64.0908 80.194V81.194H66.5028V80.194V79.194H64.0908V80.194ZM66.5028 80.194V81.194C68.4073 81.194 69.6128 81.67 70.3362 82.4262L71.0588 81.735L71.7814 81.0438C70.5394 79.7453 68.7077 79.194 66.5028 79.194V80.194ZM71.0588 81.735L70.3517 82.4421C71.0807 83.1711 71.5328 84.3458 71.5328 86.157H72.5328H73.5328C73.5328 84.0375 73.0023 82.2642 71.7659 81.0279L71.0588 81.735ZM72.5328 86.157H71.5328V97.681H72.5328H73.5328V86.157H72.5328ZM59.9368 122.136V121.136H53.9068V122.136V123.136H59.9368V122.136ZM53.9068 122.136H54.9068V80.194H53.9068H52.9068V122.136H53.9068ZM53.9068 80.194V81.194H59.9368V80.194V79.194H53.9068V80.194ZM59.9368 80.194H58.9368V84.08H59.9368H60.9368V80.194H59.9368ZM59.9368 84.08H58.9368V84.75H59.9368H60.9368V84.08H59.9368ZM59.9368 84.75H58.9368V122.136H59.9368H60.9368V84.75H59.9368ZM66.5028 95.403V96.403H72.5328V95.403V94.403H66.5028V95.403ZM72.5328 95.403H71.5328V106.994H72.5328H73.5328V95.403H72.5328ZM72.5328 106.994H71.5328C71.5328 108.749 71.0859 109.941 70.3362 110.725L71.0588 111.416L71.7814 112.107C72.9971 110.836 73.5328 109.08 73.5328 106.994H72.5328ZM71.0588 111.416L70.3517 110.709C69.6301 111.431 68.4184 111.89 66.5028 111.89V112.89V113.89C68.6966 113.89 70.5222 113.367 71.7659 112.123L71.0588 111.416ZM66.5028 112.89V111.89H64.0908V112.89V113.89H66.5028V112.89ZM64.0908 112.89V111.89C62.9332 111.89 62.1182 111.585 61.5392 111.071L60.8748 111.818L60.2104 112.565C61.2394 113.48 62.5684 113.89 64.0908 113.89V112.89ZM60.8748 111.818L61.5392 111.071C61.036 110.623 60.6688 109.799 60.6688 108.334H59.6688H58.6688C58.6688 110.085 59.1056 111.583 60.2104 112.565L60.8748 111.818ZM59.6688 108.334H60.6688V104.113H59.6688H58.6688V108.334H59.6688ZM59.6688 104.113V105.113H59.9368V104.113V103.113H59.6688V104.113ZM59.9368 104.113H58.9368V105.654H59.9368H60.9368V104.113H59.9368ZM59.9368 105.654H58.9368C58.9368 106.625 59.1204 107.592 59.7657 108.237L60.4728 107.53L61.1799 106.823C61.1105 106.753 60.9368 106.47 60.9368 105.654H59.9368ZM60.4728 107.53L59.8143 108.283C60.4358 108.826 61.2833 108.999 62.1478 108.999V107.999V106.999C61.4936 106.999 61.2245 106.859 61.1313 106.777L60.4728 107.53ZM62.1478 107.999V108.999H64.4928V107.999V106.999H62.1478V107.999ZM64.4928 107.999V108.999C64.9431 108.999 65.366 108.962 65.7403 108.869C66.1086 108.777 66.5 108.612 66.8079 108.304L66.1008 107.597L65.3937 106.89C65.4336 106.85 65.423 106.886 65.2553 106.928C65.0936 106.969 64.8465 106.999 64.4928 106.999V107.999ZM66.1008 107.597L66.8079 108.304C67.3801 107.732 67.5028 106.85 67.5028 106.056H66.5028H65.5028C65.5028 106.384 65.4732 106.611 65.4347 106.758C65.3955 106.909 65.3615 106.922 65.3937 106.89L66.1008 107.597ZM66.5028 106.056H67.5028V95.403H66.5028H65.5028V106.056H66.5028ZM84.2144 107.731L84.9215 107.024L84.9215 107.024L84.2144 107.731ZM87.4974 108.133H88.4974V107.133H87.4974V108.133ZM87.4974 112.89V113.89H88.4974V112.89H87.4974ZM79.3904 111.416L78.6677 112.107L78.6831 112.123L78.6991 112.139L79.3904 111.416ZM79.3904 81.735L78.6832 81.0279L78.6832 81.0279L79.3904 81.735ZM87.8324 80.194H88.8324V79.194H87.8324V80.194ZM87.8324 84.951V85.951H88.8324V84.951H87.8324ZM84.2144 85.353L84.8545 86.1212L84.8894 86.0922L84.9215 86.0601L84.2144 85.353ZM91.0484 97.547H90.0484V98.547H91.0484V97.547ZM90.6464 85.353L89.8781 85.9932L89.9363 86.063L90.0062 86.1212L90.6464 85.353ZM86.9614 84.951H85.9614V85.951H86.9614V84.951ZM86.9614 80.194V79.194H85.9614V80.194H86.9614ZM95.4704 81.735L94.7477 82.4262L94.7631 82.4423L94.7791 82.4576L95.4704 81.735ZM97.0114 97.547V98.547H98.0114V97.547H97.0114ZM90.9144 103.443V102.443H89.9144V103.443H90.9144ZM96.8104 103.443H97.8104V102.443H96.8104V103.443ZM95.3364 111.416L96.0435 112.123L96.0513 112.115L96.059 112.107L95.3364 111.416ZM86.9614 112.89H85.9614V113.89H86.9614V112.89ZM86.9614 108.133V107.133H85.9614V108.133H86.9614ZM90.5124 107.731L89.8053 107.024L89.7732 107.056L89.7441 107.091L90.5124 107.731ZM97.0114 93.996H98.0114V92.996H97.0114V93.996ZM97.0114 98.418V99.418H98.0114V98.418H97.0114ZM80.0604 98.418H79.0604V99.418H80.0604V98.418ZM80.0604 93.996V92.996H79.0604V93.996H80.0604ZM83.8124 86.894H82.8124V106.19H83.8124H84.8124V86.894H83.8124ZM83.8124 106.19H82.8124C82.8124 106.984 82.9351 107.866 83.5072 108.438L84.2144 107.731L84.9215 107.024C84.9537 107.056 84.9197 107.043 84.8805 106.892C84.842 106.745 84.8124 106.518 84.8124 106.19H83.8124ZM84.2144 107.731L83.5072 108.438C83.8151 108.746 84.2066 108.911 84.5748 109.003C84.9491 109.096 85.3721 109.133 85.8224 109.133V108.133V107.133C85.4686 107.133 85.2216 107.103 85.0599 107.062C84.8921 107.02 84.8816 106.984 84.9215 107.024L84.2144 107.731ZM85.8224 108.133V109.133H87.4974V108.133V107.133H85.8224V108.133ZM87.4974 108.133H86.4974V112.89H87.4974H88.4974V108.133H87.4974ZM87.4974 112.89V111.89H84.1474V112.89V113.89H87.4974V112.89ZM84.1474 112.89V111.89C82.1327 111.89 80.8472 111.426 80.0816 110.693L79.3904 111.416L78.6991 112.139C79.9882 113.372 81.874 113.89 84.1474 113.89V112.89ZM79.3904 111.416L80.113 110.725C79.3633 109.941 78.9164 108.749 78.9164 106.994H77.9164H76.9164C76.9164 109.08 77.4521 110.836 78.6677 112.107L79.3904 111.416ZM77.9164 106.994H78.9164V86.157H77.9164H76.9164V106.994H77.9164ZM77.9164 86.157H78.9164C78.9164 84.3458 79.3685 83.1711 80.0975 82.4421L79.3904 81.735L78.6832 81.0279C77.4469 82.2642 76.9164 84.0375 76.9164 86.157H77.9164ZM79.3904 81.735L80.0975 82.4421C80.8641 81.6755 82.1431 81.194 84.1474 81.194V80.194V79.194C81.8636 79.194 79.9713 79.7398 78.6832 81.0279L79.3904 81.735ZM84.1474 80.194V81.194H87.8324V80.194V79.194H84.1474V80.194ZM87.8324 80.194H86.8324V84.951H87.8324H88.8324V80.194H87.8324ZM87.8324 84.951V83.951H85.8224V84.951V85.951H87.8324V84.951ZM85.8224 84.951V83.951C85.3721 83.951 84.9491 83.9878 84.5748 84.0814C84.2066 84.1734 83.8151 84.338 83.5072 84.6459L84.2144 85.353L84.9215 86.0601C84.8816 86.1 84.8921 86.0636 85.0599 86.0216C85.2216 85.9812 85.4686 85.951 85.8224 85.951V84.951ZM84.2144 85.353L83.5742 84.5848C83.216 84.8832 83.0391 85.2936 82.9452 85.6533C82.8487 86.0232 82.8124 86.4457 82.8124 86.894H83.8124H84.8124C84.8124 86.5383 84.843 86.3019 84.8805 86.1582C84.9206 86.0042 84.9447 86.0461 84.8545 86.1212L84.2144 85.353ZM91.0484 97.547H92.0484V86.894H91.0484H90.0484V97.547H91.0484ZM91.0484 86.894H92.0484C92.0484 86.4457 92.012 86.0232 91.9155 85.6533C91.8216 85.2936 91.6447 84.8832 91.2865 84.5848L90.6464 85.353L90.0062 86.1212C89.916 86.0461 89.9401 86.0042 89.9802 86.1582C90.0177 86.3019 90.0484 86.5383 90.0484 86.894H91.0484ZM90.6464 85.353L91.4146 84.7128C91.1161 84.3547 90.7057 84.1777 90.346 84.0839C89.9761 83.9874 89.5536 83.951 89.1054 83.951V84.951V85.951C89.4611 85.951 89.6974 85.9816 89.8412 86.0191C89.9951 86.0593 89.9533 86.0833 89.8781 85.9932L90.6464 85.353ZM89.1054 84.951V83.951H86.9614V84.951V85.951H89.1054V84.951ZM86.9614 84.951H87.9614V80.194H86.9614H85.9614V84.951H86.9614ZM86.9614 80.194V81.194H90.7134V80.194V79.194H86.9614V80.194ZM90.7134 80.194V81.194C92.7741 81.194 94.0347 81.6808 94.7477 82.4262L95.4704 81.735L96.193 81.0438C94.9407 79.7345 93.03 79.194 90.7134 79.194V80.194ZM95.4704 81.735L94.7791 82.4576C95.5433 83.1886 96.0114 84.3574 96.0114 86.157H97.0114H98.0114C98.0114 84.0259 97.4521 82.2468 96.1616 81.0124L95.4704 81.735ZM97.0114 86.157H96.0114V97.547H97.0114H98.0114V86.157H97.0114ZM97.0114 97.547V96.547H91.0484V97.547V98.547H97.0114V97.547ZM90.9144 106.123H91.9144V103.443H90.9144H89.9144V106.123H90.9144ZM90.9144 103.443V104.443H96.8104V103.443V102.443H90.9144V103.443ZM96.8104 103.443H95.8104V106.994H96.8104H97.8104V103.443H96.8104ZM96.8104 106.994H95.8104C95.8104 108.749 95.3634 109.941 94.6137 110.725L95.3364 111.416L96.059 112.107C97.2746 110.836 97.8104 109.08 97.8104 106.994H96.8104ZM95.3364 111.416L94.6293 110.709C93.9176 111.421 92.6505 111.89 90.5794 111.89V112.89V113.89C92.8855 113.89 94.7898 113.377 96.0435 112.123L95.3364 111.416ZM90.5794 112.89V111.89H86.9614V112.89V113.89H90.5794V112.89ZM86.9614 112.89H87.9614V108.133H86.9614H85.9614V112.89H86.9614ZM86.9614 108.133V109.133H88.9044V108.133V107.133H86.9614V108.133ZM88.9044 108.133V109.133C89.3718 109.133 89.8078 109.097 90.1854 109.003C90.5478 108.912 90.9745 108.738 91.2806 108.371L90.5124 107.731L89.7441 107.091C89.8269 106.992 89.8739 107.019 89.7003 107.062C89.542 107.102 89.2856 107.133 88.9044 107.133V108.133ZM90.5124 107.731L91.2195 108.438C91.5273 108.13 91.6919 107.739 91.784 107.371C91.8776 106.996 91.9144 106.573 91.9144 106.123H90.9144H89.9144C89.9144 106.477 89.8841 106.724 89.8437 106.885C89.8018 107.053 89.7654 107.064 89.8053 107.024L90.5124 107.731ZM97.0114 93.996H96.0114V98.418H97.0114H98.0114V93.996H97.0114ZM97.0114 98.418V97.418H80.0604V98.418V99.418H97.0114V98.418ZM80.0604 98.418H81.0604V93.996H80.0604H79.0604V98.418H80.0604ZM80.0604 93.996V94.996H97.0114V93.996V92.996H80.0604V93.996ZM114.857 80.127H115.857V79.127H114.857V80.127ZM114.857 85.42V86.42H115.857V85.42H114.857ZM108.224 91.718V92.718H109.224V91.718H108.224ZM107.956 91.718H106.956V92.718H107.956V91.718ZM108.559 83.276L107.656 82.8461L107.651 82.8558L107.647 82.8656L108.559 83.276ZM110.435 80.998L109.87 80.1727L109.86 80.1799L109.849 80.1873L110.435 80.998ZM108.224 112.89V113.89H109.224V112.89H108.224ZM102.194 112.89H101.194V113.89H102.194V112.89ZM102.194 80.194V79.194H101.194V80.194H102.194ZM108.224 80.194H109.224V79.194H108.224V80.194ZM114.857 80.127H113.857V85.42H114.857H115.857V80.127H114.857ZM114.857 85.42V84.42H112.445V85.42V86.42H114.857V85.42ZM112.445 85.42V84.42C110.842 84.42 109.47 84.8911 108.522 85.9894C107.599 87.0595 107.224 88.5597 107.224 90.311H108.224H109.224C109.224 88.8017 109.553 87.8564 110.036 87.2961C110.495 86.764 111.234 86.42 112.445 86.42V85.42ZM108.224 90.311H107.224V91.718H108.224H109.224V90.311H108.224ZM108.224 91.718V90.718H107.956V91.718V92.718H108.224V91.718ZM107.956 91.718H108.956V86.023H107.956H106.956V91.718H107.956ZM107.956 86.023H108.956C108.956 85.2328 109.124 84.4565 109.471 83.6864L108.559 83.276L107.647 82.8656C107.19 83.8821 106.956 84.9372 106.956 86.023H107.956ZM108.559 83.276L109.462 83.7059C109.84 82.912 110.359 82.2863 111.02 81.8087L110.435 80.998L109.849 80.1873C108.903 80.871 108.171 81.764 107.656 82.8461L108.559 83.276ZM110.435 80.998L111 81.8233C111.655 81.3751 112.477 81.127 113.517 81.127V80.127V79.127C112.145 79.127 110.912 79.4596 109.87 80.1727L110.435 80.998ZM113.517 80.127V81.127H114.857V80.127V79.127H113.517V80.127ZM108.224 112.89V111.89H102.194V112.89V113.89H108.224V112.89ZM102.194 112.89H103.194V80.194H102.194H101.194V112.89H102.194ZM102.194 80.194V81.194H108.224V80.194V79.194H102.194V80.194ZM108.224 80.194H107.224V86.291H108.224H109.224V80.194H108.224ZM108.224 86.291H107.224V112.89H108.224H109.224V86.291H108.224ZM124.725 74.633H125.725V73.633H124.725V74.633ZM125.127 107.329L124.42 108.036L124.42 108.036L125.127 107.329ZM129.214 107.731H130.214V106.731H129.214V107.731ZM129.214 112.89V113.89H130.214V112.89H129.214ZM120.102 111.416L119.379 112.107L119.394 112.123L119.411 112.139L120.102 111.416ZM118.628 74.633V73.633H117.628V74.633H118.628ZM129.214 80.194H130.214V79.194H129.214V80.194ZM129.214 85.085V86.085H130.214V85.085H129.214ZM115.546 85.085H114.546V86.085H115.546V85.085ZM115.546 80.194V79.194H114.546V80.194H115.546ZM124.725 74.633H123.725V105.788H124.725H125.725V74.633H124.725ZM124.725 105.788H123.725C123.725 106.582 123.847 107.464 124.42 108.036L125.127 107.329L125.834 106.622C125.866 106.654 125.832 106.641 125.793 106.49C125.754 106.343 125.725 106.116 125.725 105.788H124.725ZM125.127 107.329L124.42 108.036C124.992 108.608 125.874 108.731 126.668 108.731V107.731V106.731C126.34 106.731 126.113 106.701 125.965 106.663C125.815 106.624 125.802 106.59 125.834 106.622L125.127 107.329ZM126.668 107.731V108.731H129.214V107.731V106.731H126.668V107.731ZM129.214 107.731H128.214V112.89H129.214H130.214V107.731H129.214ZM129.214 112.89V111.89H124.926V112.89V113.89H129.214V112.89ZM124.926 112.89V111.89C122.86 111.89 121.555 111.423 120.793 110.693L120.102 111.416L119.411 112.139C120.703 113.375 122.615 113.89 124.926 113.89V112.89ZM120.102 111.416L120.824 110.725C120.075 109.941 119.628 108.749 119.628 106.994H118.628H117.628C117.628 109.08 118.163 110.836 119.379 112.107L120.102 111.416ZM118.628 106.994H119.628V74.633H118.628H117.628V106.994H118.628ZM118.628 74.633V75.633H124.725V74.633V73.633H118.628V74.633ZM129.214 80.194H128.214V85.085H129.214H130.214V80.194H129.214ZM129.214 85.085V84.085H115.546V85.085V86.085H129.214V85.085ZM115.546 85.085H116.546V80.194H115.546H114.546V85.085H115.546ZM115.546 80.194V81.194H129.214V80.194V79.194H115.546V80.194ZM138.845 112.89V113.89H139.845V112.89H138.845ZM132.815 112.89H131.815V113.89H132.815V112.89ZM132.815 80.194V79.194H131.815V80.194H132.815ZM138.845 80.194H139.845V79.194H138.845V80.194ZM132.681 73.963H131.681V74.963H132.681V73.963ZM132.681 68V67H131.681V68H132.681ZM138.979 68H139.979V67H138.979V68ZM138.979 73.963V74.963H139.979V73.963H138.979ZM138.845 112.89V111.89H132.815V112.89V113.89H138.845V112.89ZM132.815 112.89H133.815V80.194H132.815H131.815V112.89H132.815ZM132.815 80.194V81.194H138.845V80.194V79.194H132.815V80.194ZM138.845 80.194H137.845V112.89H138.845H139.845V80.194H138.845ZM132.681 73.963H133.681V68H132.681H131.681V73.963H132.681ZM132.681 68V69H138.979V68V67H132.681V68ZM138.979 68H137.979V73.963H138.979H139.979V68H138.979ZM138.979 73.963V72.963H132.681V73.963V74.963H138.979V73.963ZM155.242 99.356L154.474 99.9962L154.532 100.066L154.602 100.124L155.242 99.356ZM145.46 97.48L144.738 98.1712L144.745 98.1793L144.753 98.1871L145.46 97.48ZM145.46 81.735L144.753 81.0279L144.753 81.0279L145.46 81.735ZM159.865 81.735L159.143 82.4262L159.158 82.4423L159.174 82.4576L159.865 81.735ZM161.406 89.306V90.306H162.406V89.306H161.406ZM155.51 89.306H154.51V90.306H155.51V89.306ZM155.108 85.219L154.34 85.8592L154.398 85.929L154.468 85.9872L155.108 85.219ZM150.284 85.219L150.924 85.9872L150.959 85.9582L150.991 85.9261L150.284 85.219ZM150.284 93.996L149.577 94.7031L149.609 94.7352L149.644 94.7642L150.284 93.996ZM160.066 95.872L159.344 96.5632L159.351 96.5712L159.359 96.5791L160.066 95.872ZM159.999 111.416L160.706 112.123L160.706 112.123L159.999 111.416ZM145.594 111.416L144.872 112.107L144.887 112.123L144.903 112.139L145.594 111.416ZM144.12 103.778V102.778H143.12V103.778H144.12ZM150.083 103.778H151.083V102.778H150.083V103.778ZM150.485 107.865L151.192 107.158L151.192 107.158L150.485 107.865ZM155.242 107.865L154.535 107.158L154.503 107.19L154.474 107.225L155.242 107.865ZM155.644 106.324H156.644V100.897H155.644H154.644V106.324H155.644ZM155.644 100.897H156.644C156.644 100.449 156.608 100.026 156.511 99.6563C156.417 99.2966 156.241 98.8862 155.882 98.5878L155.242 99.356L154.602 100.124C154.512 100.049 154.536 100.007 154.576 100.161C154.614 100.305 154.644 100.541 154.644 100.897H155.644ZM155.242 99.356L156.01 98.7158C155.704 98.3485 155.278 98.175 154.915 98.0844C154.538 97.9899 154.102 97.954 153.634 97.954V98.954V99.954C154.015 99.954 154.272 99.9851 154.43 100.025C154.604 100.068 154.557 100.095 154.474 99.9962L155.242 99.356ZM153.634 98.954V97.954H150.217V98.954V99.954H153.634V98.954ZM150.217 98.954V97.954C148.146 97.954 146.879 97.4845 146.167 96.7729L145.46 97.48L144.753 98.1871C146.007 99.4408 147.911 99.954 150.217 99.954V98.954ZM145.46 97.48L146.183 96.7888C145.433 96.005 144.986 94.8135 144.986 93.058H143.986H142.986C142.986 95.1439 143.522 96.9003 144.738 98.1712L145.46 97.48ZM143.986 93.058H144.986V86.157H143.986H142.986V93.058H143.986ZM143.986 86.157H144.986C144.986 84.3458 145.438 83.1711 146.167 82.4421L145.46 81.735L144.753 81.0279C143.517 82.2642 142.986 84.0375 142.986 86.157H143.986ZM145.46 81.735L146.167 82.4421C146.934 81.6755 148.213 81.194 150.217 81.194V80.194V79.194C147.933 79.194 146.041 79.7398 144.753 81.0279L145.46 81.735ZM150.217 80.194V81.194H155.108V80.194V79.194H150.217V80.194ZM155.108 80.194V81.194C157.169 81.194 158.43 81.6808 159.143 82.4262L159.865 81.735L160.588 81.0438C159.336 79.7345 157.425 79.194 155.108 79.194V80.194ZM159.865 81.735L159.174 82.4576C159.938 83.1886 160.406 84.3574 160.406 86.157H161.406H162.406C162.406 84.0259 161.847 82.2468 160.556 81.0124L159.865 81.735ZM161.406 86.157H160.406V89.306H161.406H162.406V86.157H161.406ZM161.406 89.306V88.306H155.51V89.306V90.306H161.406V89.306ZM155.51 89.306H156.51V86.76H155.51H154.51V89.306H155.51ZM155.51 86.76H156.51C156.51 86.3117 156.474 85.8892 156.377 85.5193C156.283 85.1596 156.107 84.7492 155.748 84.4508L155.108 85.219L154.468 85.9872C154.378 85.9121 154.402 85.8702 154.442 86.0242C154.48 86.1679 154.51 86.4043 154.51 86.76H155.51ZM155.108 85.219L155.876 84.5788C155.57 84.2115 155.144 84.038 154.781 83.9474C154.404 83.8529 153.968 83.817 153.5 83.817V84.817V85.817C153.881 85.817 154.138 85.848 154.296 85.8876C154.47 85.931 154.423 85.9585 154.34 85.8592L155.108 85.219ZM153.5 84.817V83.817H151.892V84.817V85.817H153.5V84.817ZM151.892 84.817V83.817C151.442 83.817 151.019 83.8538 150.645 83.9474C150.276 84.0394 149.885 84.204 149.577 84.5119L150.284 85.219L150.991 85.9261C150.951 85.966 150.962 85.9296 151.13 85.8876C151.291 85.8472 151.538 85.817 151.892 85.817V84.817ZM150.284 85.219L149.644 84.4508C149.286 84.7492 149.109 85.1596 149.015 85.5193C148.919 85.8892 148.882 86.3117 148.882 86.76H149.882H150.882C150.882 86.4043 150.913 86.1679 150.95 86.0242C150.99 85.8702 151.015 85.9121 150.924 85.9872L150.284 85.219ZM149.882 86.76H148.882V92.388H149.882H150.882V86.76H149.882ZM149.882 92.388H148.882C148.882 92.8383 148.919 93.2612 149.013 93.6355C149.105 94.0038 149.269 94.3952 149.577 94.7031L150.284 93.996L150.991 93.2889C151.031 93.3288 150.995 93.3182 150.953 93.1505C150.912 92.9888 150.882 92.7417 150.882 92.388H149.882ZM150.284 93.996L149.644 94.7642C149.956 95.0241 150.337 95.1542 150.683 95.2262C151.042 95.3009 151.45 95.331 151.892 95.331V94.331V93.331C151.53 93.331 151.269 93.3053 151.091 93.2683C150.901 93.2287 150.881 93.1913 150.924 93.2278L150.284 93.996ZM151.892 94.331V95.331H155.376V94.331V93.331H151.892V94.331ZM155.376 94.331V95.331C157.385 95.331 158.627 95.8143 159.344 96.5632L160.066 95.872L160.789 95.1808C159.54 93.875 157.655 93.331 155.376 93.331V94.331ZM160.066 95.872L159.359 96.5791C160.088 97.3081 160.54 98.4828 160.54 100.294H161.54H162.54C162.54 98.1745 162.01 96.4012 160.773 95.1649L160.066 95.872ZM161.54 100.294H160.54V106.994H161.54H162.54V100.294H161.54ZM161.54 106.994H160.54C160.54 108.738 160.077 109.924 159.292 110.709L159.999 111.416L160.706 112.123C161.976 110.854 162.54 109.091 162.54 106.994H161.54ZM159.999 111.416L159.292 110.709C158.577 111.424 157.329 111.89 155.309 111.89V112.89V113.89C157.578 113.89 159.456 113.374 160.706 112.123L159.999 111.416ZM155.309 112.89V111.89H150.351V112.89V113.89H155.309V112.89ZM150.351 112.89V111.89C148.337 111.89 147.051 111.426 146.285 110.693L145.594 111.416L144.903 112.139C146.192 113.372 148.078 113.89 150.351 113.89V112.89ZM145.594 111.416L146.317 110.725C145.567 109.941 145.12 108.749 145.12 106.994H144.12H143.12C143.12 109.08 143.656 110.836 144.872 112.107L145.594 111.416ZM144.12 106.994H145.12V103.778H144.12H143.12V106.994H144.12ZM144.12 103.778V104.778H150.083V103.778V102.778H144.12V103.778ZM150.083 103.778H149.083V106.324H150.083H151.083V103.778H150.083ZM150.083 106.324H149.083C149.083 107.118 149.206 108 149.778 108.572L150.485 107.865L151.192 107.158C151.225 107.19 151.191 107.177 151.151 107.026C151.113 106.879 151.083 106.652 151.083 106.324H150.083ZM150.485 107.865L149.778 108.572C150.35 109.144 151.232 109.267 152.026 109.267V108.267V107.267C151.698 107.267 151.471 107.237 151.324 107.199C151.174 107.16 151.16 107.126 151.192 107.158L150.485 107.865ZM152.026 108.267V109.267H153.634V108.267V107.267H152.026V108.267ZM153.634 108.267V109.267C154.102 109.267 154.538 109.231 154.915 109.137C155.278 109.046 155.704 108.872 156.01 108.505L155.242 107.865L154.474 107.225C154.557 107.126 154.604 107.153 154.43 107.196C154.272 107.236 154.015 107.267 153.634 107.267V108.267ZM155.242 107.865L155.949 108.572C156.521 108 156.644 107.118 156.644 106.324H155.644H154.644C154.644 106.652 154.615 106.879 154.576 107.026C154.537 107.177 154.503 107.19 154.535 107.158L155.242 107.865ZM172.872 107.731L173.579 107.024L173.579 107.024L172.872 107.731ZM176.155 108.133H177.155V107.133H176.155V108.133ZM176.155 112.89V113.89H177.155V112.89H176.155ZM168.048 111.416L167.325 112.107L167.34 112.123L167.356 112.139L168.048 111.416ZM168.048 81.735L167.34 81.0279L167.34 81.0279L168.048 81.735ZM176.49 80.194H177.49V79.194H176.49V80.194ZM176.49 84.951V85.951H177.49V84.951H176.49ZM172.872 85.353L173.512 86.1212L173.547 86.0922L173.579 86.0601L172.872 85.353ZM179.706 97.547H178.706V98.547H179.706V97.547ZM179.304 85.353L178.535 85.9932L178.594 86.063L178.663 86.1212L179.304 85.353ZM175.619 84.951H174.619V85.951H175.619V84.951ZM175.619 80.194V79.194H174.619V80.194H175.619ZM184.128 81.735L183.405 82.4262L183.42 82.4423L183.436 82.4576L184.128 81.735ZM185.669 97.547V98.547H186.669V97.547H185.669ZM179.572 103.443V102.443H178.572V103.443H179.572ZM185.468 103.443H186.468V102.443H185.468V103.443ZM183.994 111.416L184.701 112.123L184.709 112.115L184.716 112.107L183.994 111.416ZM175.619 112.89H174.619V113.89H175.619V112.89ZM175.619 108.133V107.133H174.619V108.133H175.619ZM179.17 107.731L178.462 107.024L178.43 107.056L178.401 107.091L179.17 107.731ZM185.669 93.996H186.669V92.996H185.669V93.996ZM185.669 98.418V99.418H186.669V98.418H185.669ZM168.718 98.418H167.718V99.418H168.718V98.418ZM168.718 93.996V92.996H167.718V93.996H168.718ZM172.47 86.894H171.47V106.19H172.47H173.47V86.894H172.47ZM172.47 106.19H171.47C171.47 106.984 171.592 107.866 172.164 108.438L172.872 107.731L173.579 107.024C173.611 107.056 173.577 107.043 173.538 106.892C173.499 106.745 173.47 106.518 173.47 106.19H172.47ZM172.872 107.731L172.164 108.438C172.472 108.746 172.864 108.911 173.232 109.003C173.606 109.096 174.029 109.133 174.48 109.133V108.133V107.133C174.126 107.133 173.879 107.103 173.717 107.062C173.549 107.02 173.539 106.984 173.579 107.024L172.872 107.731ZM174.48 108.133V109.133H176.155V108.133V107.133H174.48V108.133ZM176.155 108.133H175.155V112.89H176.155H177.155V108.133H176.155ZM176.155 112.89V111.89H172.805V112.89V113.89H176.155V112.89ZM172.805 112.89V111.89C170.79 111.89 169.504 111.426 168.739 110.693L168.048 111.416L167.356 112.139C168.645 113.372 170.531 113.89 172.805 113.89V112.89ZM168.048 111.416L168.77 110.725C168.021 109.941 167.574 108.749 167.574 106.994H166.574H165.574C165.574 109.08 166.109 110.836 167.325 112.107L168.048 111.416ZM166.574 106.994H167.574V86.157H166.574H165.574V106.994H166.574ZM166.574 86.157H167.574C167.574 84.3458 168.026 83.1711 168.755 82.4421L168.048 81.735L167.34 81.0279C166.104 82.2642 165.574 84.0375 165.574 86.157H166.574ZM168.048 81.735L168.755 82.4421C169.521 81.6755 170.8 81.194 172.805 81.194V80.194V79.194C170.521 79.194 168.629 79.7398 167.34 81.0279L168.048 81.735ZM172.805 80.194V81.194H176.49V80.194V79.194H172.805V80.194ZM176.49 80.194H175.49V84.951H176.49H177.49V80.194H176.49ZM176.49 84.951V83.951H174.48V84.951V85.951H176.49V84.951ZM174.48 84.951V83.951C174.029 83.951 173.606 83.9878 173.232 84.0814C172.864 84.1734 172.472 84.338 172.164 84.6459L172.872 85.353L173.579 86.0601C173.539 86.1 173.549 86.0636 173.717 86.0216C173.879 85.9812 174.126 85.951 174.48 85.951V84.951ZM172.872 85.353L172.231 84.5848C171.873 84.8832 171.696 85.2936 171.602 85.6533C171.506 86.0232 171.47 86.4457 171.47 86.894H172.47H173.47C173.47 86.5383 173.5 86.3019 173.538 86.1582C173.578 86.0042 173.602 86.0461 173.512 86.1212L172.872 85.353ZM179.706 97.547H180.706V86.894H179.706H178.706V97.547H179.706ZM179.706 86.894H180.706C180.706 86.4457 180.669 86.0232 180.573 85.6533C180.479 85.2936 180.302 84.8832 179.944 84.5848L179.304 85.353L178.663 86.1212C178.573 86.0461 178.597 86.0042 178.637 86.1582C178.675 86.3019 178.706 86.5383 178.706 86.894H179.706ZM179.304 85.353L180.072 84.7128C179.773 84.3547 179.363 84.1777 179.003 84.0839C178.633 83.9874 178.211 83.951 177.763 83.951V84.951V85.951C178.118 85.951 178.355 85.9816 178.498 86.0191C178.652 86.0593 178.61 86.0833 178.535 85.9932L179.304 85.353ZM177.763 84.951V83.951H175.619V84.951V85.951H177.763V84.951ZM175.619 84.951H176.619V80.194H175.619H174.619V84.951H175.619ZM175.619 80.194V81.194H179.371V80.194V79.194H175.619V80.194ZM179.371 80.194V81.194C181.431 81.194 182.692 81.6808 183.405 82.4262L184.128 81.735L184.85 81.0438C183.598 79.7345 181.687 79.194 179.371 79.194V80.194ZM184.128 81.735L183.436 82.4576C184.201 83.1886 184.669 84.3574 184.669 86.157H185.669H186.669C186.669 84.0259 186.109 82.2468 184.819 81.0124L184.128 81.735ZM185.669 86.157H184.669V97.547H185.669H186.669V86.157H185.669ZM185.669 97.547V96.547H179.706V97.547V98.547H185.669V97.547ZM179.572 106.123H180.572V103.443H179.572H178.572V106.123H179.572ZM179.572 103.443V104.443H185.468V103.443V102.443H179.572V103.443ZM185.468 103.443H184.468V106.994H185.468H186.468V103.443H185.468ZM185.468 106.994H184.468C184.468 108.749 184.021 109.941 183.271 110.725L183.994 111.416L184.716 112.107C185.932 110.836 186.468 109.08 186.468 106.994H185.468ZM183.994 111.416L183.286 110.709C182.575 111.421 181.308 111.89 179.237 111.89V112.89V113.89C181.543 113.89 183.447 113.377 184.701 112.123L183.994 111.416ZM179.237 112.89V111.89H175.619V112.89V113.89H179.237V112.89ZM175.619 112.89H176.619V108.133H175.619H174.619V112.89H175.619ZM175.619 108.133V109.133H177.562V108.133V107.133H175.619V108.133ZM177.562 108.133V109.133C178.029 109.133 178.465 109.097 178.843 109.003C179.205 108.912 179.632 108.738 179.938 108.371L179.17 107.731L178.401 107.091C178.484 106.992 178.531 107.019 178.358 107.062C178.199 107.102 177.943 107.133 177.562 107.133V108.133ZM179.17 107.731L179.877 108.438C180.185 108.13 180.349 107.739 180.441 107.371C180.535 106.996 180.572 106.573 180.572 106.123H179.572H178.572C178.572 106.477 178.541 106.724 178.501 106.885C178.459 107.053 178.423 107.064 178.462 107.024L179.17 107.731ZM185.669 93.996H184.669V98.418H185.669H186.669V93.996H185.669ZM185.669 98.418V97.418H168.718V98.418V99.418H185.669V98.418ZM168.718 98.418H169.718V93.996H168.718H167.718V98.418H168.718ZM168.718 93.996V94.996H185.669V93.996V92.996H168.718V93.996ZM191.253 70.948V69.948H190.212L190.254 70.9882L191.253 70.948ZM198.556 70.948L199.555 70.9882L199.597 69.948H198.556V70.948ZM197.417 99.222V100.222H198.378L198.416 99.2623L197.417 99.222ZM192.392 99.222L191.393 99.2623L191.432 100.222H192.392V99.222ZM191.454 112.89H190.454V113.89H191.454V112.89ZM191.454 104.649V103.649H190.454V104.649H191.454ZM198.221 104.649H199.221V103.649H198.221V104.649ZM198.221 112.89V113.89H199.221V112.89H198.221ZM191.253 70.948V71.948H198.556V70.948V69.948H191.253V70.948ZM198.556 70.948L197.557 70.9077L196.418 99.1817L197.417 99.222L198.416 99.2623L199.555 70.9882L198.556 70.948ZM197.417 99.222V98.222H192.392V99.222V100.222H197.417V99.222ZM192.392 99.222L193.391 99.1817L192.252 70.9077L191.253 70.948L190.254 70.9882L191.393 99.2623L192.392 99.222ZM191.454 112.89H192.454V104.649H191.454H190.454V112.89H191.454ZM191.454 104.649V105.649H198.221V104.649V103.649H191.454V104.649ZM198.221 104.649H197.221V112.89H198.221H199.221V104.649H198.221ZM198.221 112.89V111.89H191.454V112.89V113.89H198.221V112.89Z" fill="black" mask="url(#path-1-outside-1_1_73)"/>
</g>
<defs>
<filter id="filter0_d_1_73" x="0" y="0" width="315.819" height="131.136" filterUnits="userSpaceOnUse" color-interpolation-filters="sRGB">
<feFlood flood-opacity="0" result="BackgroundImageFix"/>
<feColorMatrix in="SourceAlpha" type="matrix" values="0 0 0 0 0 0 0 0 0 0 0 0 0 0 0 0 0 0 127 0" result="hardAlpha"/>
<feOffset dy="4"/>
<feGaussianBlur stdDeviation="2"/>
<feComposite in2="hardAlpha" operator="out"/>
<feColorMatrix type="matrix" values="0 0 0 0 0 0 0 0 0 0 0 0 0 0 0 0 0 0 0.25 0"/>
<feBlend mode="normal" in2="BackgroundImageFix" result="effect1_dropShadow_1_73"/>
<feBlend mode="normal" in="SourceGraphic" in2="effect1_dropShadow_1_73" result="shape"/>
</filter>
</defs>
</svg>
